<svg xmlns="http://www.w3.org/2000/svg" viewBox="0 0 481.09 367.85"><defs><style>.cls-1{fill:#22b573;}.cls-1,.cls-10{opacity:0.5;}.cls-2{fill:#ff0;}.cls-3{fill:#d27a54;}.cls-4,.cls-5{fill:none;}.cls-14,.cls-17,.cls-4,.cls-5{stroke:#000;stroke-miterlimit:10;}.cls-5{stroke-width:0.2px;}.cls-6{fill:#e35e4b;}.cls-17,.cls-7{fill:#fff;}.cls-8{fill:#373246;}.cls-10,.cls-9{fill:#7f6666;}.cls-11{fill:#008e99;}.cls-12{fill:#e3ffff;}.cls-13{fill:#00a99d;}.cls-15{fill:#073763;}.cls-16{fill:#0f325a;}.cls-18{fill:#4d4d4d;}.cls-19{fill:#fbb03b;}.cls-20{fill:#d4145a;}</style></defs><title>boy-at-desk</title><g id="background"><path class="cls-1" d="M364.66,112.87c6.52-7.1,27.43,1.2,87.16,2.84,35.23,1,33.26-1.78,48-.26,64.95,6.67,106.92,60.15,122.55,80.06,18.83,24,34.46,46.88,33.54,79.11-1.48,52.42-47.8,86.16-56.93,92.53-25.41,17.73-53.25,24.08-107.88,36.06-76.9,16.86-115.35,25.29-150.63,20.6C271,414.57,201,370.77,180,316.66c-18.49-47.66,19.38-56,17.76-155.57-.8-49.24-10.51-74.46,11.19-91.18,24.71-19,71.92-13,107.22-5.15" transform="translate(-174.88 -57.25)"/></g><g id="Boy_Body" data-name="Boy Body"><path class="cls-2" d="M294.9,306.35c1.6-25.32,3.2-34.38,4.51-37.14l2.52-10.42c1.56-5.6,3.14-9.91,4.48-13.55,4.06-11,6.74-14.68,7.89-16l.29-.33c3.17-3.48,6.93-4.27,10.43-4.89,4.86-.86,9.43-1.43,13.73-1.78a68.85,68.85,0,0,1,16.09,2.61,67.64,67.64,0,0,1,11.82,4.56c10.17,5.37,15.81,37.24,13.73,77.56" transform="translate(-174.88 -57.25)"/><path class="cls-3" d="M333.24,209.28q-2.49,7.23-5,14.47a18.15,18.15,0,0,0,6.58,3.53c7.05,2,12.89-1.42,14.75-2.64l-1.14-13" transform="translate(-174.88 -57.25)"/></g><g id="Boy_Wave" data-name="Boy Wave"><path class="cls-3" d="M283.68,141.66l.77-4.1a15.06,15.06,0,0,1-1-3.47c0-.29-.06-.63-.06-.63-.05-.81,0-1.44,0-1.77a.62.62,0,0,0,0-.12,12.35,12.35,0,0,0-1.06-4.65h0c-.95-2.53-1.6-4.3-1-4.74a.72.72,0,0,1,.5-.1c.76.08,1.07,1,2.46,4.15.37.83.81,1.62,1.15,2.46.19.49.39,1,.71,1s.51-.33.65-.55l-.52-11.47c.47-.3,1.15-.65,1.67-.42.73.32.77,1.94.82,5.16,0,2.19.09,5.57.92,5.73a5.87,5.87,0,0,0,1-.07h0l-.33,0a58.07,58.07,0,0,0,1.88-8c.24-1.54.41-3,.53-4.42a1.59,1.59,0,0,1,1.3-.55,1.5,1.5,0,0,1,1.23.83,50.76,50.76,0,0,1-.62,5.94c-.55,3.34-1.53,7.19-1.53,7.19l1.21,1.19q2.48-4.86,5-9.72a1.76,1.76,0,0,1,2-.46,1.68,1.68,0,0,1,.2,2.54c-2.3,4-3.92,6.76-4.68,7.78a3.41,3.41,0,0,0-.68,1.52,3,3,0,0,0,.2,1.61c.31.75,1.11,1.8,1.88,1.71.5-.06.52-.56,1.51-1.6a6.4,6.4,0,0,1,1.77-1.44,3.52,3.52,0,0,1,2.79-.54,2.81,2.81,0,0,1,1.55,1.64l-4.32,2.86-4.1,5.22-2.95,1.83a22.82,22.82,0,0,1-2.58.31,24.06,24.06,0,0,1-4.77-.15" transform="translate(-174.88 -57.25)"/><path class="cls-2" d="M321.39,224,267,190.76l26.94-47.13a18.37,18.37,0,0,1-10.42-4.49l-32.7,48.23a7.79,7.79,0,0,0,1.54,10.41l55.15,44.85" transform="translate(-174.88 -57.25)"/><path class="cls-3" d="M297.62,139.68" transform="translate(-174.88 -57.25)"/></g><g id="boy_head" data-name="boy head"><path class="cls-3" d="M329,209.73a27.08,27.08,0,0,0,10,3.84c8.33,1.24,14.94-2.62,17.45-4.09a29.11,29.11,0,0,0,8.74-7.72,28.08,28.08,0,0,0,3.93-7.63,33.6,33.6,0,0,0,0-18.77c-3.56-11.41-15.82-23.93-31.2-22.36-10.75,1.1-20.16,8.8-24.53,19.69a56.67,56.67,0,0,0,2.39,19.09c1.28,4.17,2.59,8.29,6.15,12.25A29.44,29.44,0,0,0,329,209.73Z" transform="translate(-174.88 -57.25)"/><path class="cls-4" d="M465,318.62" transform="translate(-174.88 -57.25)"/><path class="cls-4" d="M405.89,146.17" transform="translate(-174.88 -57.25)"/><path class="cls-5" d="M330.4,187.77" transform="translate(-174.88 -57.25)"/><g id="Mouth"><path class="cls-6" d="M351.41,200a13.91,13.91,0,0,1-4,2.49,14.06,14.06,0,0,1-6.15,1,17.51,17.51,0,0,1-6.78-1.66,7.82,7.82,0,0,1-1.82-1.11,6.38,6.38,0,0,1-2.14-2.71,6.26,6.26,0,0,1-.39-2.8l21.74,2.28Z" transform="translate(-174.88 -57.25)"/><path class="cls-7" d="M351.54,199.37q-5.27-.37-10.73-.89c-3.55-.34-7-.72-10.45-1.12a6.2,6.2,0,0,1-.24-1.79c0-.14,0-.27,0-.4l21.78,2.31C351.79,198.11,351.66,198.74,351.54,199.37Z" transform="translate(-174.88 -57.25)"/><path class="cls-7" d="M320.74,188.42" transform="translate(-174.88 -57.25)"/></g><g id="Boy_Eyes" data-name="Boy Eyes"><g id="Left"><path class="cls-7" d="M335.61,182h0a14.92,14.92,0,0,1-7.83.65,15.11,15.11,0,0,1-6.89-4.26l0,0h0c.21-.14,3.82-2.49,7.72-1.83S335.61,182,335.61,182Z" transform="translate(-174.88 -57.25)"/><ellipse class="cls-8" cx="154.26" cy="122.7" rx="2.75" ry="2.96"/><path d="M349.66,174.84c.55-1.77,6.39-.62,7.21-.46a20.71,20.71,0,0,1,6.75,2.41c0,.05-.63-.22-1.85-.54a23.3,23.3,0,0,0-4.71-.68c-4.4-.21-7.07.81-7.41-.23A.78.78,0,0,1,349.66,174.84Z" transform="translate(-174.88 -57.25)"/><path class="cls-7" d="M345.84,182.21h0a15.88,15.88,0,0,0,7.64,2.82,13.66,13.66,0,0,0,7.62-2.44h0c-.18-.2-3.33-3.59-7.32-4S345.84,182.21,345.84,182.21Z" transform="translate(-174.88 -57.25)"/><ellipse class="cls-8" cx="178.94" cy="124.35" rx="2.8" ry="2.97"/><path d="M334.81,174.57c-.21-1.87-6.11-2.32-6.94-2.39a19.48,19.48,0,0,0-7,.53c0,.06.65-.05,1.91,0a23.33,23.33,0,0,1,4.71.61c4.33,1,6.74,2.7,7.27,1.78A.85.85,0,0,0,334.81,174.57Z" transform="translate(-174.88 -57.25)"/><ellipse cx="154.26" cy="122.71" rx="2.48" ry="2.5"/><ellipse cx="353.83" cy="181.53" rx="2.57" ry="2.4" transform="translate(-214.47 66.21) rotate(-18.76)"/></g></g><path class="cls-9" d="M344.37,212.69a16.23,16.23,0,0,1-6.46.29,17.53,17.53,0,0,1-5.3-1.73l1.92.61a22.86,22.86,0,0,0,3.14.68,27.19,27.19,0,0,0,5.1.23C343.44,212.75,344,212.71,344.37,212.69Z" transform="translate(-174.88 -57.25)"/><path class="cls-10" d="M345.47,213.27" transform="translate(-174.88 -57.25)"/><path class="cls-3" d="M337.25,196.49" transform="translate(-174.88 -57.25)"/><path class="cls-3" d="M377.21,186.94" transform="translate(-174.88 -57.25)"/><circle class="cls-7" cx="152.95" cy="120.92" r="0.45"/><circle class="cls-7" cx="178.14" cy="122.7" r="0.45"/></g><g id="boy_hair" data-name="boy hair"><path class="cls-4" d="M356.68,154" transform="translate(-174.88 -57.25)"/><path class="cls-8" d="M316.69,179.7c.42-1.25-.73-1.76-.73-3.33s1.06-2.08,1.33-4.26a5.47,5.47,0,0,0,0-1.09c0-.67-.39-1.43-.41-2,0-.79.65-.84,1.64-2.56.08-.15.34-.66.85-1.7,0,0,.91-1.85,1.21-1.78h0c.07,0-.22-.62-.1-.86.25-.47,2.06.8,4,.37,1.22-.28,1.42-1,3.14-1.33a7,7,0,0,1,1.56-.12c2.81,0,3.24,1.33,5.56,1.45.17,0,1.56-.19,4.33-.57a10.2,10.2,0,0,1,1.73-.15c1.83,0,2.16.51,5,.57a16.58,16.58,0,0,1,3.07.07c1.31.23,2.45.44,3.36.62a.77.77,0,0,1,.28.12c1.53,1,2.7,1.9,3.48,2.52,1.81,1.43,2.18,2,3.14,2.13,2,.3,2.94-1.71,4.35-1.3s1.83,2.67,2.41,5.75a34.45,34.45,0,0,1,.61,6,2.72,2.72,0,0,0,1.2,1.76,3.43,3.43,0,0,0,3-.25,7.37,7.37,0,0,0,3.14-2.41c.86-1.08,1.57-2,1.45-3-.17-1.58-2-2-1.82-3s2.37-1.07,3-2.48c.41-1-.16-2.19-.85-3.18.73-1.23,1.15-2.45.67-3.28-.74-1.3-3.12-.71-3.69-2s1.08-2.22.67-3.35-2.72-1.59-5-1.68c1.43-1.61,1.47-2.38,1.27-2.79-.52-1.11-3.14-.29-4.23-1.83-.68-.95,0-1.75-.73-2.44-1-1-2.63.24-3.86-.73-1-.82-.43-2.1-1.32-2.61-1.2-.68-2.66,1.49-4.65,1-1.39-.35-1.38-1.56-2.66-1.68-1.49-.13-2,1.5-3.5,1.33a4.49,4.49,0,0,1-2.54-1.73c-.81-.95-.85-1.55-1.45-1.68-.86-.19-1.37,1-2.22.73-.65-.17-.57-.9-1.49-1.33a2.26,2.26,0,0,0-1.49-.2c-.65.17-.71.59-1.52.85a1.8,1.8,0,0,1-1.09.12c-.78-.22-.71-1.11-1.61-1.53a1.7,1.7,0,0,0-1.21-.12c-.78.28-.53,1.15-1.29,1.61s-1.16-.09-3,.22a2.92,2.92,0,0,0-.72.18c-.76.33-1,1-2.36,1.26s-2.3-.21-3,.41-.17,1-.72,1.5c-.81.69-2.07,0-2.6.64-.31.38,0,.72-.23,1.24-.35.68-1.28.73-2.67,1.07a8.94,8.94,0,0,0-3.5,1.27c-1.13.86-2,2.49-1.57,3.64.41,1,1.66,1.18,1.57,1.67s-2.07.22-3,1.33.19,2.35-.72,3.52c-.67.87-1.47.49-1.93,1.4a2.57,2.57,0,0,0,.36,2.7,3.38,3.38,0,0,0,.55.43c.39.27.56.28.71.59.71,1.47-2,3.32-1.26,4.7.29.57.75.29,1.39,1,1.15,1.27,0,2.62,1.08,4.34.44.68.87.85,1.12,1.29a2.09,2.09,0,0,1,.15.44,6.82,6.82,0,0,1,.16,1c.07.46.71.63,1.65,1.36s1.13,1.24,1.57,1.19S316.54,180.14,316.69,179.7Z" transform="translate(-174.88 -57.25)"/><path class="cls-9" d="M342.92,177.61c.77,3.93,2.81,8.81,2.32,11.78-.11.64-3.82-.63-5.73-.94" transform="translate(-174.88 -57.25)"/><path class="cls-3" d="M342.3,178.16c.67,3.57,2.44,8,2,10.69-.09.58-3.33-.57-5-.86" transform="translate(-174.88 -57.25)"/><path class="cls-8" d="M314.44,183.5" transform="translate(-174.88 -57.25)"/><path class="cls-8" d="M312.5,179.39" transform="translate(-174.88 -57.25)"/></g><g id="Boy_ears" data-name="Boy ears"><path class="cls-3" d="M313.51,178.38a2.49,2.49,0,0,0-4.14,0,6.3,6.3,0,0,0-.45,2.88,6.12,6.12,0,0,0,.57,2.19,11.23,11.23,0,0,0,1.93,2.42,11.08,11.08,0,0,0,3,2" transform="translate(-174.88 -57.25)"/><path class="cls-9" d="M310.13,181.71a4.48,4.48,0,0,1,.2-1.45,4.94,4.94,0,0,1,.56-1.21,4.27,4.27,0,0,1,2.5,2.42,4.07,4.07,0,0,1,.08,2.57l-1.61-2.17.56-.81a1.2,1.2,0,0,0-2.29.65Z" transform="translate(-174.88 -57.25)"/><path class="cls-8" d="M313.56,180.77" transform="translate(-174.88 -57.25)"/><path class="cls-3" d="M369.2,180a2.55,2.55,0,0,1,2.15-1.43,2.65,2.65,0,0,1,1.95.81,6.48,6.48,0,0,1,.86,2.79,6.33,6.33,0,0,1-.24,2.25,11.16,11.16,0,0,1-1.56,2.67,11,11,0,0,1-2.68,2.45" transform="translate(-174.88 -57.25)"/><path class="cls-9" d="M373.39,182.48c.15-.17-.17-1.31-.95-1.87a2.06,2.06,0,0,0-1.73-.27,18,18,0,0,1-.34,2.82,18.94,18.94,0,0,1-1.17,3.76l1.48-1.9,1.1-1.36c-.2-1-.31-1.89,0-2.1S373.18,182.68,373.39,182.48Z" transform="translate(-174.88 -57.25)"/></g><g id="Laptop"><path class="cls-11" d="M329.81,351.5l-20.94-51.28,24.92-.59" transform="translate(-174.88 -57.25)"/><g id="Keys"><polygon class="cls-12" points="150.92 252.75 145.17 254.67 143.24 248.94 148.99 247.01 150.92 252.75"/><polygon class="cls-12" points="153.8 261.32 148.06 263.24 146.13 257.51 151.87 255.58 153.8 261.32"/><polygon class="cls-12" points="156.69 269.89 150.94 271.81 149.01 266.08 154.76 264.15 156.69 269.89"/><polygon class="cls-12" points="159.62 249.72 154.01 252 151.72 246.4 157.34 244.12 159.62 249.72"/></g><path class="cls-13" d="M328.14,264.73q.09,43.39.19,86.77H465q-.3-43.41-.58-86.83Z" transform="translate(-174.88 -57.25)"/><ellipse class="cls-14" cx="226.77" cy="246.4" rx="18.11" ry="9.06"/></g><g id="Lamp"><polyline class="cls-15" points="361.43 200.43 333.98 262.02 349.02 261.16 373.83 202.67 359.22 205.38"/><path class="cls-16" d="M473,338.11v-12a8.31,8.31,0,0,1,8.11-8.49h61.91a8.34,8.34,0,0,1,8.14,8.52v11.94Z" transform="translate(-174.88 -57.25)"/><path class="cls-15" d="M530.51,239.9,475.43,194l6.87-8.62,66.33,54.49H530.51" transform="translate(-174.88 -57.25)"/><path class="cls-17" d="M525.15,314.89" transform="translate(-174.88 -57.25)"/><ellipse class="cls-18" cx="368.18" cy="192.85" rx="17.91" ry="15.16"/><ellipse class="cls-7" cx="368.18" cy="192.85" rx="6.33" ry="5.36"/><ellipse class="cls-19" cx="270.25" cy="141.79" rx="22.94" ry="21.11"/><path class="cls-20" d="M476.25,222.25,411,177.38a33.75,33.75,0,0,1,19.86-17.15,35.62,35.62,0,0,1,24.21,1.17l10.49-13.18a5.39,5.39,0,0,1,7.53-.86l19.07,14.52a5.79,5.79,0,0,1,1.1,8.15l-10.13,12.74c1.14,1.66,7.19,10.79,4.43,22.61A29.85,29.85,0,0,1,476.25,222.25Z" transform="translate(-174.88 -57.25)"/></g></svg>