<svg xmlns="http://www.w3.org/2000/svg" viewBox="0 0 750 470"><defs><style>.cls-1,.cls-2{fill:#00a99d;}.cls-16,.cls-18,.cls-2,.cls-7,.cls-8{stroke:#000;stroke-miterlimit:10;}.cls-2{stroke-width:0.25px;}.cls-3{fill:#0f325a;}.cls-4{fill:#22b573;}.cls-5{fill:#ff0;}.cls-6{fill:#d27a54;}.cls-7,.cls-8{fill:none;}.cls-8{stroke-width:0.2px;}.cls-9{fill:#e35e4b;}.cls-10,.cls-18{fill:#fff;}.cls-11{fill:#373246;}.cls-12,.cls-13{fill:#7f6666;}.cls-13{opacity:0.5;}.cls-14{fill:#008e99;}.cls-15{fill:#e3ffff;}.cls-17{fill:#073763;}.cls-19{fill:#4d4d4d;}.cls-20{fill:#fbb03b;}.cls-21{fill:#d4145a;}</style></defs><title>Boy</title><g id="Guides"><rect class="cls-1" x="257.79" y="160.53" width="99.25" height="24.02"/><path d="M356.54,161v23H258.29V161h98.25m1-1H257.29v25H357.54V160Z"/><path class="cls-2" d="M306.51,132.26"/></g><g id="background"><rect class="cls-3" width="750" height="470"/><path class="cls-4" d="M357.67,112.13c6.11-7.12,25.69,1.2,81.61,2.84,33,1,31.15-1.78,45-.25C545.07,121.4,584.37,175,599,195c17.63,24.05,32.27,47,31.41,79.3C629,326.81,585.65,360.63,577.1,367c-23.8,17.77-49.86,24.14-101,36.15-72,16.9-108,25.35-141,20.65-65.1-9.26-130.64-53.17-150.29-107.4-17.32-47.78,18.14-56.17,16.63-155.94-.75-49.36-9.85-74.64,10.47-91.4C235,50,279.2,56,312.25,63.9"/></g><g id="Boy_Body" data-name="Boy Body"><path class="cls-5" d="M294.9,306.35c1.6-25.32,3.2-34.38,4.51-37.14l2.52-10.42c1.56-5.6,3.14-9.91,4.48-13.55,4.06-11,6.74-14.68,7.89-16l.29-.33c3.17-3.48,6.93-4.27,10.43-4.89,4.86-.86,9.43-1.43,13.73-1.78a68.85,68.85,0,0,1,16.09,2.61,67.64,67.64,0,0,1,11.82,4.56c10.17,5.37,15.81,37.24,13.73,77.56"/><path class="cls-6" d="M333.24,209.28q-2.49,7.23-5,14.47a18.15,18.15,0,0,0,6.58,3.53c7.05,2,12.89-1.42,14.75-2.64l-1.14-13"/></g><g id="Boy_Wave" data-name="Boy Wave"><path class="cls-6" d="M283.68,141.66l.77-4.1a15.06,15.06,0,0,1-1-3.47c0-.29-.06-.63-.06-.63-.05-.81,0-1.44,0-1.77a.62.62,0,0,0,0-.12,12.35,12.35,0,0,0-1.06-4.65h0c-.95-2.53-1.6-4.3-1-4.74a.72.72,0,0,1,.5-.1c.76.08,1.07,1,2.46,4.15.37.83.81,1.62,1.15,2.46.19.49.39,1,.71,1s.51-.33.65-.55l-.52-11.47c.47-.3,1.15-.65,1.67-.42.73.32.77,1.94.82,5.16,0,2.19.09,5.57.92,5.73a5.87,5.87,0,0,0,1-.07h0l-.33,0a58.07,58.07,0,0,0,1.88-8c.24-1.54.41-3,.53-4.42a1.59,1.59,0,0,1,1.3-.55,1.5,1.5,0,0,1,1.23.83,50.76,50.76,0,0,1-.62,5.94c-.55,3.34-1.53,7.19-1.53,7.19l1.21,1.19q2.48-4.86,5-9.72a1.76,1.76,0,0,1,2-.46,1.68,1.68,0,0,1,.2,2.54c-2.3,4-3.92,6.76-4.68,7.78a3.41,3.41,0,0,0-.68,1.52,3,3,0,0,0,.2,1.61c.31.75,1.11,1.8,1.88,1.71.5-.06.52-.56,1.51-1.6a6.4,6.4,0,0,1,1.77-1.44,3.52,3.52,0,0,1,2.79-.54,2.81,2.81,0,0,1,1.55,1.64l-4.32,2.86-4.1,5.22-2.95,1.83a22.82,22.82,0,0,1-2.58.31,24.06,24.06,0,0,1-4.77-.15"/><path class="cls-5" d="M321.39,224,267,190.76l26.94-47.13a18.37,18.37,0,0,1-10.42-4.49l-32.7,48.23a7.79,7.79,0,0,0,1.54,10.41l55.15,44.85"/><path class="cls-6" d="M297.62,139.68"/></g><g id="boy_head" data-name="boy head"><path class="cls-6" d="M329,209.73a27.08,27.08,0,0,0,10,3.84c8.33,1.24,14.94-2.62,17.45-4.09a29.11,29.11,0,0,0,8.74-7.72,28.08,28.08,0,0,0,3.93-7.63,33.6,33.6,0,0,0,0-18.77c-3.56-11.41-15.82-23.93-31.2-22.36-10.75,1.1-20.16,8.8-24.53,19.69a56.67,56.67,0,0,0,2.39,19.09c1.28,4.17,2.59,8.29,6.15,12.25A29.44,29.44,0,0,0,329,209.73Z"/><path class="cls-7" d="M465,318.62"/><path class="cls-7" d="M405.89,146.17"/><path class="cls-8" d="M330.4,187.77"/><g id="Mouth"><path class="cls-9" d="M351.41,200a13.91,13.91,0,0,1-4,2.49,14.06,14.06,0,0,1-6.15,1,17.51,17.51,0,0,1-6.78-1.66,7.82,7.82,0,0,1-1.82-1.11,6.38,6.38,0,0,1-2.14-2.71,6.26,6.26,0,0,1-.39-2.8l21.74,2.28Z"/><path class="cls-10" d="M351.54,199.37q-5.27-.37-10.73-.89c-3.55-.34-7-.72-10.45-1.12a6.2,6.2,0,0,1-.24-1.79c0-.14,0-.27,0-.4l21.78,2.31C351.79,198.11,351.66,198.74,351.54,199.37Z"/><path class="cls-10" d="M320.74,188.42"/></g><g id="Boy_Eyes" data-name="Boy Eyes"><g id="Left"><path class="cls-10" d="M335.61,182h0a14.92,14.92,0,0,1-7.83.65,15.11,15.11,0,0,1-6.89-4.26l0,0h0c.21-.14,3.82-2.49,7.72-1.83S335.61,182,335.61,182Z"/><ellipse class="cls-11" cx="329.14" cy="179.95" rx="2.75" ry="2.96"/><path d="M349.66,174.84c.55-1.77,6.39-.62,7.21-.46a20.71,20.71,0,0,1,6.75,2.41c0,.05-.63-.22-1.85-.54a23.3,23.3,0,0,0-4.71-.68c-4.4-.21-7.07.81-7.41-.23A.78.78,0,0,1,349.66,174.84Z"/><path class="cls-10" d="M345.84,182.21h0a15.88,15.88,0,0,0,7.64,2.82,13.66,13.66,0,0,0,7.62-2.44h0c-.18-.2-3.33-3.59-7.32-4S345.84,182.21,345.84,182.21Z"/><ellipse class="cls-11" cx="353.82" cy="181.6" rx="2.8" ry="2.97"/><path d="M334.81,174.57c-.21-1.87-6.11-2.32-6.94-2.39a19.48,19.48,0,0,0-7,.53c0,.06.65-.05,1.91,0a23.33,23.33,0,0,1,4.71.61c4.33,1,6.74,2.7,7.27,1.78A.85.85,0,0,0,334.81,174.57Z"/><ellipse cx="329.14" cy="179.95" rx="2.48" ry="2.5"/><ellipse cx="353.83" cy="181.53" rx="2.57" ry="2.4" transform="translate(-39.58 123.45) rotate(-18.76)"/></g></g><path class="cls-12" d="M344.37,212.69a16.23,16.23,0,0,1-6.46.29,17.53,17.53,0,0,1-5.3-1.73l1.92.61a22.86,22.86,0,0,0,3.14.68,27.19,27.19,0,0,0,5.1.23C343.44,212.75,344,212.71,344.37,212.69Z"/><path class="cls-13" d="M345.47,213.27"/><path class="cls-6" d="M337.25,196.49"/><path class="cls-6" d="M377.21,186.94"/><circle class="cls-10" cx="327.83" cy="178.16" r="0.45"/><circle class="cls-10" cx="353.03" cy="179.95" r="0.45"/></g><g id="boy_hair" data-name="boy hair"><path class="cls-7" d="M356.68,154"/><path class="cls-11" d="M316.69,179.7c.42-1.25-.73-1.76-.73-3.33s1.06-2.08,1.33-4.26a5.47,5.47,0,0,0,0-1.09c0-.67-.39-1.43-.41-2,0-.79.65-.84,1.64-2.56.08-.15.34-.66.85-1.7,0,0,.91-1.85,1.21-1.78h0c.07,0-.22-.62-.1-.86.25-.47,2.06.8,4,.37,1.22-.28,1.42-1,3.14-1.33a7,7,0,0,1,1.56-.12c2.81,0,3.24,1.33,5.56,1.45.17,0,1.56-.19,4.33-.57a10.2,10.2,0,0,1,1.73-.15c1.83,0,2.16.51,5,.57a16.58,16.58,0,0,1,3.07.07c1.31.23,2.45.44,3.36.62a.77.77,0,0,1,.28.12c1.53,1,2.7,1.9,3.48,2.52,1.81,1.43,2.18,2,3.14,2.13,2,.3,2.94-1.71,4.35-1.3s1.83,2.67,2.41,5.75a34.45,34.45,0,0,1,.61,6,2.72,2.72,0,0,0,1.2,1.76,3.43,3.43,0,0,0,3-.25,7.37,7.37,0,0,0,3.14-2.41c.86-1.08,1.57-2,1.45-3-.17-1.58-2-2-1.82-3s2.37-1.07,3-2.48c.41-1-.16-2.19-.85-3.18.73-1.23,1.15-2.45.67-3.28-.74-1.3-3.12-.71-3.69-2s1.08-2.22.67-3.35-2.72-1.59-5-1.68c1.43-1.61,1.47-2.38,1.27-2.79-.52-1.11-3.14-.29-4.23-1.83-.68-.95,0-1.75-.73-2.44-1-1-2.63.24-3.86-.73-1-.82-.43-2.1-1.32-2.61-1.2-.68-2.66,1.49-4.65,1-1.39-.35-1.38-1.56-2.66-1.68-1.49-.13-2,1.5-3.5,1.33a4.49,4.49,0,0,1-2.54-1.73c-.81-.95-.85-1.55-1.45-1.68-.86-.19-1.37,1-2.22.73-.65-.17-.57-.9-1.49-1.33a2.26,2.26,0,0,0-1.49-.2c-.65.17-.71.59-1.52.85a1.8,1.8,0,0,1-1.09.12c-.78-.22-.71-1.11-1.61-1.53a1.7,1.7,0,0,0-1.21-.12c-.78.28-.53,1.15-1.29,1.61s-1.16-.09-3,.22a2.92,2.92,0,0,0-.72.18c-.76.33-1,1-2.36,1.26s-2.3-.21-3,.41-.17,1-.72,1.5c-.81.69-2.07,0-2.6.64-.31.38,0,.72-.23,1.24-.35.68-1.28.73-2.67,1.07a8.94,8.94,0,0,0-3.5,1.27c-1.13.86-2,2.49-1.57,3.64.41,1,1.66,1.18,1.57,1.67s-2.07.22-3,1.33.19,2.35-.72,3.52c-.67.87-1.47.49-1.93,1.4a2.57,2.57,0,0,0,.36,2.7,3.38,3.38,0,0,0,.55.43c.39.27.56.28.71.59.71,1.47-2,3.32-1.26,4.7.29.57.75.29,1.39,1,1.15,1.27,0,2.62,1.08,4.34.44.68.87.85,1.12,1.29a2.09,2.09,0,0,1,.15.44,6.82,6.82,0,0,1,.16,1c.07.46.71.63,1.65,1.36s1.13,1.24,1.57,1.19S316.54,180.14,316.69,179.7Z"/><path class="cls-12" d="M342.92,177.61c.77,3.93,2.81,8.81,2.32,11.78-.11.64-3.82-.63-5.73-.94"/><path class="cls-6" d="M342.3,178.16c.67,3.57,2.44,8,2,10.69-.09.58-3.33-.57-5-.86"/><path class="cls-11" d="M314.44,183.5"/><path class="cls-11" d="M312.5,179.39"/></g><g id="Boy_ears" data-name="Boy ears"><path class="cls-6" d="M313.51,178.38a2.49,2.49,0,0,0-4.14,0,6.3,6.3,0,0,0-.45,2.88,6.12,6.12,0,0,0,.57,2.19,11.23,11.23,0,0,0,1.93,2.42,11.08,11.08,0,0,0,3,2"/><path class="cls-12" d="M310.13,181.71a4.48,4.48,0,0,1,.2-1.45,4.94,4.94,0,0,1,.56-1.21,4.27,4.27,0,0,1,2.5,2.42,4.07,4.07,0,0,1,.08,2.57l-1.61-2.17.56-.81a1.2,1.2,0,0,0-2.29.65Z"/><path class="cls-11" d="M313.56,180.77"/><path class="cls-6" d="M369.2,180a2.55,2.55,0,0,1,2.15-1.43,2.65,2.65,0,0,1,1.95.81,6.48,6.48,0,0,1,.86,2.79,6.33,6.33,0,0,1-.24,2.25,11.16,11.16,0,0,1-1.56,2.67,11,11,0,0,1-2.68,2.45"/><path class="cls-12" d="M373.39,182.48c.15-.17-.17-1.31-.95-1.87a2.06,2.06,0,0,0-1.73-.27,18,18,0,0,1-.34,2.82,18.94,18.94,0,0,1-1.17,3.76l1.48-1.9,1.1-1.36c-.2-1-.31-1.89,0-2.1S373.18,182.68,373.39,182.48Z"/></g><g id="Laptop"><path class="cls-14" d="M329.81,351.5l-20.94-51.28,24.92-.59"/><g id="Keys"><polygon class="cls-15" points="325.8 309.99 320.05 311.92 318.12 306.18 323.87 304.26 325.8 309.99"/><polygon class="cls-15" points="328.68 318.56 322.94 320.49 321.01 314.75 326.75 312.83 328.68 318.56"/><polygon class="cls-15" points="331.57 327.13 325.82 329.06 323.89 323.32 329.64 321.4 331.57 327.13"/><polygon class="cls-15" points="334.5 306.97 328.89 309.25 326.61 303.64 332.22 301.37 334.5 306.97"/></g><path class="cls-1" d="M328.14,264.73q.09,43.39.19,86.77H465q-.3-43.41-.58-86.83Z"/><ellipse class="cls-16" cx="401.65" cy="303.65" rx="18.11" ry="9.06"/></g><g id="Lamp"><polyline class="cls-17" points="536.31 257.68 508.86 319.26 523.9 318.41 548.71 259.91 534.1 262.63"/><path class="cls-3" d="M473,338.11v-12a8.31,8.31,0,0,1,8.11-8.49h61.91a8.34,8.34,0,0,1,8.14,8.52v11.94Z"/><path class="cls-17" d="M530.51,239.9,475.43,194l6.87-8.62,66.33,54.49H530.51"/><path class="cls-18" d="M525.15,314.89"/><ellipse class="cls-19" cx="543.06" cy="250.1" rx="17.91" ry="15.16"/><ellipse class="cls-10" cx="543.06" cy="250.1" rx="6.33" ry="5.36"/><ellipse class="cls-20" cx="445.13" cy="199.04" rx="22.94" ry="21.11"/><path class="cls-21" d="M476.25,222.25,411,177.38a33.75,33.75,0,0,1,19.86-17.15,35.62,35.62,0,0,1,24.21,1.17l10.49-13.18a5.39,5.39,0,0,1,7.53-.86l19.07,14.52a5.79,5.79,0,0,1,1.1,8.15l-10.13,12.74c1.14,1.66,7.19,10.79,4.43,22.61A29.85,29.85,0,0,1,476.25,222.25Z"/></g></svg>