<svg xmlns="http://www.w3.org/2000/svg" viewBox="0 0 389.44 308.88"><defs><style>.cls-1{fill:#00a99d;}.cls-2{fill:#0f325a;}.cls-3{fill:#a00449;}.cls-4{fill:#fbb03b;}.cls-5{fill:#ff0;}.cls-6{fill:#d27a54;}.cls-7,.cls-8{fill:none;}.cls-17,.cls-7,.cls-8{stroke:#000;stroke-miterlimit:10;}.cls-8{stroke-width:0.2px;}.cls-9{fill:#e35e4b;}.cls-10,.cls-17{fill:#fff;}.cls-11{fill:#373246;}.cls-12,.cls-13{fill:#7f6666;}.cls-13{opacity:0.5;}.cls-14{fill:#3f5b7b;}.cls-15{fill:#008e99;}.cls-16{fill:#999;}.cls-18{fill:#4d4d4d;}.cls-19{fill:#d4145a;}</style></defs><title>boy-at-desk</title><g id="background"><path class="cls-1" d="M5.7,212.17c.27,7,2,31.13,23.55,55.06C87,331.33,223.79,326,248.51,325c38.91-1.52,110.13-4.32,131.14-34.29,23.53-33.55-4.18-83.55-44.34-94.18-24-6.36-44,3.67-72.16-7.14-14.88-5.71-23.06-13.79-34.51-27.12-43.44-50.55-61-91.67-67.88-90.59-1.83.29-3.43,3.68-1.8,18.35-3.17.07-8.48.22-15,.57C118.9,91.93,97.55,93.21,77,101c-10.81,4.1-16.44,8.12-17.82,9.13a42.82,42.82,0,0,0-13.56,15.71C21,173.46,4.59,183.75,5.7,212.17Z" transform="translate(-5.64 -16.64)"/><path class="cls-2" d="M37.19,313.15" transform="translate(-5.64 -16.64)"/><path class="cls-3" d="M204.75,107" transform="translate(-5.64 -16.64)"/><polygon class="cls-4" points="199.63 134.79 212.53 130.01 211.91 125.93 199 130.71 199.63 134.79"/><polygon class="cls-4" points="213.09 154.51 223.29 143.53 221.31 140.21 211.11 151.19 213.09 154.51"/><polygon class="cls-4" points="239.28 165.13 243.57 148.8 240.58 147.25 236.28 163.58 239.28 165.13"/><ellipse class="cls-1" cx="182.42" cy="230.95" rx="30.11" ry="11.43"/></g><g id="Boy_Body" data-name="Boy Body"><path class="cls-5" d="M88.25,304a233,233,0,0,1,.67-60.47q1.26-8.73,3-16.68c1.88-9,3.77-15.86,5.39-21.69,4.87-17.57,8.09-23.48,9.46-25.63l.36-.53c3.8-5.57,8.32-6.84,12.53-7.83a134.18,134.18,0,0,1,16.5-2.84,63.89,63.89,0,0,1,19.33,4.19,71.57,71.57,0,0,1,14.21,7.29c11.32,8,21.75,57,16.51,124.14" transform="translate(-5.64 -16.64)"/><path class="cls-6" d="M131.94,150q-3.13,10.26-6.26,20.52a22.4,22.4,0,0,0,8.31,5c8.9,2.85,16.28-2,18.64-3.75l-1.44-18.49" transform="translate(-5.64 -16.64)"/></g><g id="Boy_Wave" data-name="Boy Wave"><path class="cls-6" d="M69.32,54.12l1-5.81A22.54,22.54,0,0,1,69,43.39c0-.41-.07-.89-.07-.89-.07-1.15,0-2,0-2.51a1.23,1.23,0,0,0,0-.17,18.88,18.88,0,0,0-1.34-6.59h0c-1.2-3.59-2-6.09-1.24-6.72a.84.84,0,0,1,.64-.14c1,.12,1.35,1.44,3.1,5.88.47,1.17,1,2.3,1.46,3.49.24.69.49,1.44.9,1.47s.64-.46.81-.78l-.65-16.25c.59-.44,1.45-.93,2.11-.6.92.45,1,2.75,1,7.31,0,3.11.11,7.9,1.16,8.13a7.39,7.39,0,0,0,1.28-.1h0l-.42,0a88.11,88.11,0,0,0,2.37-11.28q.47-3.28.67-6.27a2,2,0,0,1,1.64-.78A1.9,1.9,0,0,1,84,17.82a82,82,0,0,1-.78,8.42c-.7,4.73-1.93,10.19-1.93,10.19l1.52,1.69q3.13-6.88,6.28-13.77a2.08,2.08,0,0,1,2.5-.66,2.55,2.55,0,0,1,.24,3.59c-2.9,5.72-5,9.59-5.91,11A5.08,5.08,0,0,0,85,40.48a4.83,4.83,0,0,0,.25,2.28c.39,1.06,1.41,2.55,2.38,2.42.63-.09.66-.8,1.9-2.27a8.58,8.58,0,0,1,2.24-2c.93-.54,2.21-1.29,3.53-.76a3.81,3.81,0,0,1,2,2.32l-5.45,4-5.18,7.41-3.73,2.58a26.74,26.74,0,0,1-3.26.45,28.14,28.14,0,0,1-6-.21" transform="translate(-5.64 -16.64)"/><path class="cls-5" d="M117,170.84,48.2,123.73l34-66.81a21.5,21.5,0,0,1-8.34-2.7,23,23,0,0,1-4.83-3.68L27.76,118.92a12,12,0,0,0,1.94,14.76l69.69,63.57" transform="translate(-5.64 -16.64)"/><path class="cls-6" d="M86.94,51.32" transform="translate(-5.64 -16.64)"/></g><g id="boy_head" data-name="boy head"><path class="cls-6" d="M126.57,150.61a31.93,31.93,0,0,0,12.57,5.44c10.53,1.77,18.88-3.71,22.05-5.79a39.46,39.46,0,0,0,11.05-10.94,42.39,42.39,0,0,0,5-10.82,53.36,53.36,0,0,0,0-26.6c-4.49-16.18-20-33.92-39.42-31.69-13.59,1.55-25.48,12.46-31,27.89a89.58,89.58,0,0,0,3,27.07c1.62,5.91,3.28,11.76,7.78,17.37A37.8,37.8,0,0,0,126.57,150.61Z" transform="translate(-5.64 -16.64)"/><path class="cls-7" d="M276,298.35" transform="translate(-5.64 -16.64)"/><path class="cls-7" d="M223.74,60.52" transform="translate(-5.64 -16.64)"/><path class="cls-8" d="M128.35,119.48" transform="translate(-5.64 -16.64)"/><g id="Mouth"><path class="cls-9" d="M154.9,136.86a17.25,17.25,0,0,1-5,3.53,15.91,15.91,0,0,1-7.77,1.36,20.12,20.12,0,0,1-8.56-2.35,9.66,9.66,0,0,1-2.3-1.57,9,9,0,0,1-2.7-3.84,9.91,9.91,0,0,1-.5-4l27.48,3.24C155.32,134.45,155.11,135.66,154.9,136.86Z" transform="translate(-5.64 -16.64)"/><path class="cls-10" d="M155.06,135.92q-6.66-.53-13.56-1.26-6.72-.72-13.2-1.58a10.25,10.25,0,0,1-.31-2.54c0-.2,0-.38,0-.57l27.53,3.28Z" transform="translate(-5.64 -16.64)"/><path class="cls-10" d="M116.15,120.41" transform="translate(-5.64 -16.64)"/></g><g id="Boy_Eyes" data-name="Boy Eyes"><g id="Left"><path class="cls-10" d="M134.94,111.36h0s-5,2.21-9.89.93-8.42-5.68-8.71-6.05l0,0h0c.26-.2,4.82-3.53,9.75-2.6S134.94,111.35,134.94,111.36Z" transform="translate(-5.64 -16.64)"/><ellipse class="cls-11" cx="121.12" cy="91.76" rx="3.48" ry="4.19"/><path d="M152.69,101.16c.69-2.52,8.07-.88,9.11-.65a24.12,24.12,0,0,1,8.52,3.41c0,.07-.78-.31-2.33-.76a26.22,26.22,0,0,0-6-1c-5.56-.3-8.94,1.16-9.37-.32A1.27,1.27,0,0,1,152.69,101.16Z" transform="translate(-5.64 -16.64)"/><path class="cls-10" d="M147.86,111.6h0s4.63,3.81,9.65,4,9.28-3.19,9.63-3.47l0,0h0c-.23-.28-4.2-5.08-9.24-5.66S147.86,111.6,147.86,111.6Z" transform="translate(-5.64 -16.64)"/><ellipse class="cls-11" cx="152.3" cy="94.1" rx="3.53" ry="4.2"/><path d="M133.93,100.78c-.26-2.66-7.72-3.3-8.77-3.39-5-.43-8.89.59-8.88.75s.82-.07,2.4,0a26.08,26.08,0,0,1,6,.86c5.46,1.39,8.51,3.83,9.17,2.52A1.26,1.26,0,0,0,133.93,100.78Z" transform="translate(-5.64 -16.64)"/><ellipse cx="121.12" cy="91.77" rx="3.13" ry="3.55"/><ellipse cx="157.96" cy="110.63" rx="3.45" ry="3.21" transform="translate(-1.11 210.84) rotate(-72.3)"/></g></g><path class="cls-12" d="M146,154.8a18.09,18.09,0,0,1-8.15.41,20.29,20.29,0,0,1-6.71-2.45l2.43.87a27.09,27.09,0,0,0,4,1,30.4,30.4,0,0,0,6.45.32C144.83,154.89,145.53,154.84,146,154.8Z" transform="translate(-5.64 -16.64)"/><path class="cls-13" d="M147.4,155.63" transform="translate(-5.64 -16.64)"/><path class="cls-6" d="M137,131.84" transform="translate(-5.64 -16.64)"/><path class="cls-6" d="M187.5,118.31" transform="translate(-5.64 -16.64)"/><ellipse class="cls-10" cx="119.46" cy="89.23" rx="0.57" ry="0.63"/><ellipse class="cls-10" cx="151.3" cy="91.76" rx="0.57" ry="0.63"/></g><g id="boy_hair" data-name="boy hair"><path class="cls-7" d="M161.56,71.66" transform="translate(-5.64 -16.64)"/><path class="cls-11" d="M111,108c.53-1.77-.91-2.49-.92-4.71s1.34-3,1.68-6a8.51,8.51,0,0,0,.06-1.54c0-1-.48-2-.52-2.78,0-1.12.83-1.18,2.08-3.63.1-.2.42-.93,1.06-2.4,0,0,1.16-2.63,1.54-2.53h0c.08,0-.29-.89-.13-1.22.32-.67,2.59,1.13,5,.51,1.55-.39,1.8-1.41,4-1.88a8.65,8.65,0,0,1,2-.17c3.54.07,4.09,1.9,7,2,.21,0,2-.25,5.48-.8a10.87,10.87,0,0,1,2.17-.2c2.32,0,2.74.71,6.32.8a19.47,19.47,0,0,1,3.89.1c1.65.32,3.08.62,4.24.88a1,1,0,0,1,.35.17c1.93,1.42,3.42,2.69,4.4,3.57,2.28,2,2.75,2.81,4,3,2.56.43,3.71-2.42,5.49-1.85s2.32,3.8,3,8.15A54.45,54.45,0,0,1,174,106a4,4,0,0,0,1.53,2.5c1.21.76,2.57.17,3.75-.35a9.75,9.75,0,0,0,4-3.43c1.08-1.52,2-2.77,1.83-4.28-.22-2.24-2.5-2.81-2.3-4.27s3-1.52,3.73-3.52c.53-1.42-.2-3.11-1.07-4.5.93-1.76,1.46-3.48.86-4.66-.94-1.83-3.95-1-4.67-2.79-.63-1.58,1.37-3.15.84-4.75s-3.43-2.25-6.33-2.38c1.81-2.28,1.86-3.37,1.62-3.95-.67-1.58-4-.41-5.36-2.6-.85-1.35,0-2.47-.92-3.46-1.26-1.38-3.32.34-4.87-1-1.3-1.15-.54-3-1.67-3.69-1.52-1-3.36,2.1-5.88,1.4-1.75-.49-1.75-2.22-3.36-2.38-1.88-.18-2.52,2.13-4.42,1.89-1.46-.19-2.66-1.75-3.21-2.46-1-1.34-1.07-2.19-1.83-2.37-1.09-.27-1.73,1.35-2.8,1-.83-.24-.72-1.27-1.89-1.89a2.6,2.6,0,0,0-1.88-.28c-.82.24-.9.83-1.93,1.2a2.06,2.06,0,0,1-1.37.17c-1-.31-.9-1.57-2-2.17a2,2,0,0,0-1.53-.17c-1,.4-.68,1.63-1.63,2.29s-1.47-.12-3.77.31a3.33,3.33,0,0,0-.91.25c-1,.47-1.27,1.38-3,1.8-1.88.45-2.9-.31-3.74.57-.68.72-.21,1.45-.91,2.12-1,1-2.61,0-3.28.91-.4.55,0,1-.29,1.76-.45,1-1.62,1-3.38,1.51-2.17.59-3.38.91-4.42,1.8-1.43,1.23-2.57,3.53-2,5.16.51,1.42,2.09,1.67,2,2.38-.14.88-2.62.31-3.81,1.88s.24,3.33-.92,5c-.85,1.23-1.85.7-2.44,2a4,4,0,0,0,.46,3.84,4.91,4.91,0,0,0,.69.6c.5.38.71.4.9.84.9,2.08-2.48,4.7-1.59,6.66.37.81,1,.41,1.75,1.39,1.46,1.8,0,3.71,1.38,6.14.55,1,1.09,1.21,1.4,1.84a2.62,2.62,0,0,1,.2.62,13.11,13.11,0,0,1,.2,1.47c.08.65.9.89,2.09,1.92s1.42,1.76,2,1.69S110.84,108.66,111,108Z" transform="translate(-5.64 -16.64)"/><path class="cls-12" d="M144.18,105.08c1,5.57,3.54,12.49,2.92,16.71-.13.9-4.82-.9-7.23-1.35" transform="translate(-5.64 -16.64)"/><path class="cls-6" d="M143.39,105.87c.85,5,3.08,11.33,2.53,15.15-.12.82-4.21-.82-6.32-1.23" transform="translate(-5.64 -16.64)"/><path class="cls-11" d="M108.18,113.43" transform="translate(-5.64 -16.64)"/><path class="cls-11" d="M105.74,107.61" transform="translate(-5.64 -16.64)"/></g><g id="Boy_ears" data-name="Boy ears"><path class="cls-6" d="M107,106.18a3.12,3.12,0,0,0-3-1.57,3.3,3.3,0,0,0-2.29,1.54,10.3,10.3,0,0,0-.57,4.1,10,10,0,0,0,.72,3.1,15.69,15.69,0,0,0,2.44,3.42,14.31,14.31,0,0,0,3.81,2.88" transform="translate(-5.64 -16.64)"/><path class="cls-12" d="M102.74,110.89a7.12,7.12,0,0,1,.26-2,7.25,7.25,0,0,1,.71-1.72,5.68,5.68,0,0,1,3.15,3.43,6.41,6.41,0,0,1,.1,3.65l-2-3.08.71-1.14a1.51,1.51,0,0,0-1.93-.92A1.8,1.8,0,0,0,102.74,110.89Z" transform="translate(-5.64 -16.64)"/><path class="cls-11" d="M107.08,109.56" transform="translate(-5.64 -16.64)"/><path class="cls-6" d="M177.38,108.51a3,3,0,0,1,5.18-.89,10,10,0,0,1,1.09,4,10.18,10.18,0,0,1-.31,3.18,16.2,16.2,0,0,1-2,3.79A14.89,14.89,0,0,1,178,122" transform="translate(-5.64 -16.64)"/><path class="cls-12" d="M182.67,112a3.31,3.31,0,0,0-1.2-2.65,2.34,2.34,0,0,0-2.18-.38,31.36,31.36,0,0,1-.43,4,28.89,28.89,0,0,1-1.48,5.33l1.86-2.7,1.4-1.93c-.26-1.36-.39-2.68,0-3C181.16,110.24,182.41,112.28,182.67,112Z" transform="translate(-5.64 -16.64)"/></g><g id="Laptop"><path class="cls-14" d="M122.39,303.05,96.64,259l52.42,3.33" transform="translate(-5.64 -16.64)"/><path class="cls-2" d="M121.27,207.9q1,48,2.08,96.09l143.59-.71-.6-95.45Z" transform="translate(-5.64 -16.64)"/><path class="cls-15" d="M108.54,341.08" transform="translate(-5.64 -16.64)"/><ellipse class="cls-1" cx="192.13" cy="238.85" rx="20.4" ry="7.9"/></g><g id="Lamp"><polyline class="cls-16" points="358.83 196.76 324.77 282.61 343.44 281.42 374.22 199.87 356.09 203.66"/><path class="cls-2" d="M286,325.52V308.84C286,302.3,290.46,297,296,297h76.83c5.58,0,10.11,5.32,10.11,11.88v16.64Z" transform="translate(-5.64 -16.64)"/><path class="cls-16" d="M357.27,188.61l-68.35-64,8.53-12,82.31,76H357.27" transform="translate(-5.64 -16.64)"/><path class="cls-17" d="M350.62,293.15" transform="translate(-5.64 -16.64)"/><ellipse class="cls-18" cx="367.21" cy="186.19" rx="22.23" ry="21.14"/><ellipse class="cls-10" cx="367.21" cy="186.19" rx="7.86" ry="7.47"/><ellipse class="cls-4" cx="245.67" cy="115.01" rx="28.47" ry="29.43"/><path class="cls-19" d="M289.94,164,209,101.45c1.11-2.6,7.92-17.92,24.66-23.91a39.67,39.67,0,0,1,30,1.64l13-18.38a6.2,6.2,0,0,1,9.35-1.2l23.66,20.24a8.75,8.75,0,0,1,1.37,11.36L298.51,109a44.54,44.54,0,0,1,5.5,31.52A41.75,41.75,0,0,1,289.94,164Z" transform="translate(-5.64 -16.64)"/></g></svg>