<svg xmlns="http://www.w3.org/2000/svg" viewBox="0 0 500.83 318.75"><defs><style>.cls-1,.cls-3{fill:#00a99d;}.cls-1{opacity:0.5;}.cls-2{fill:#0071bc;}.cls-4,.cls-9{fill:none;}.cls-4{stroke:#e6e6e6;}.cls-11,.cls-12,.cls-4,.cls-6,.cls-7,.cls-9{stroke-miterlimit:10;}.cls-5{fill:#29abe2;}.cls-15,.cls-6{fill:#fff;}.cls-6,.cls-7,.cls-9{stroke:#000;}.cls-7,.cls-8{fill:#333;}.cls-10{fill:#999;}.cls-11{fill:#b3b3b3;}.cls-11,.cls-12{stroke:#999;}.cls-12{fill:gray;}.cls-13{fill:#073763;}.cls-14{fill:#9ece3c;}.cls-15{font-size:22.02px;font-family:SegoeUI-Bold, Segoe UI;font-weight:700;}.cls-16{letter-spacing:0em;}.cls-17{letter-spacing:0em;}.cls-18{letter-spacing:0em;}</style></defs><title>Desktop</title><g id="Styled_Background" data-name="Styled Background"><path class="cls-1" d="M38.42,258.14c0-125.7,102.07-227.59,228-227.59s228,101.89,228,227.59" transform="translate(-10.47 -10.27)"/><path class="cls-2" d="M119.52,194.16" transform="translate(-10.47 -10.27)"/><path class="cls-3" d="M10.47,157.6c2.7,7.59,14.11,36.86,45.57,53.68a96.24,96.24,0,0,0,50,11,96.78,96.78,0,0,1-74.21,2.77l30.92,23.8c9.94,8.19,19.62,12.4,28.46,14.33,35,7.65,75.79-16.33,75.8-16.33h0l6.56-22c.95-8.13,4.89-49.21-23.92-84.36a110.68,110.68,0,0,0-51.52-34.78q20.8,44.36,41.6,88.72a154.17,154.17,0,0,0-27-34.73C101.5,149,93.32,141.4,80.8,139.41c-5.68-.91-10.62-.39-27.38,4.29C42.46,146.76,27.76,151.23,10.47,157.6Z" transform="translate(-10.47 -10.27)"/><polyline class="cls-4" points="42.09 164.23 85.86 188.92 129.4 213.49"/><line class="cls-4" x1="81.4" y1="154.61" x2="85.85" y2="188.92"/><path class="cls-5" d="M141.87,152.77a164.52,164.52,0,0,1-43.78-47.06C73.77,66.14,73,26.83,73.59,10.27A186.88,186.88,0,0,1,160,46.36a184.67,184.67,0,0,1,37.72,39q-7.89,33-15.79,65.9Z" transform="translate(-10.47 -10.27)"/><path class="cls-4" d="M101,38q43,46,86,92.05" transform="translate(-10.47 -10.27)"/><path class="cls-4" d="M153.11,56.07l19.2,55.52" transform="translate(-10.47 -10.27)"/><line class="cls-4" x1="114.58" y1="53.5" x2="81.4" y2="61.07"/><path class="cls-2" d="M420.57,220.54" transform="translate(-10.47 -10.27)"/><path class="cls-3" d="M511.3,182.75c-2.93,7.5-15.25,36.39-47.22,52.2a96.23,96.23,0,0,1-50.28,9.43,96.81,96.81,0,0,0,74.08,5.14l-31.65,22.8c-10.19,7.87-20,11.77-28.89,13.42C392.11,292.26,352.09,267,352.09,267h0l-5.87-22.25c-.69-8.15-3.35-49.34,26.54-83.55a110.71,110.71,0,0,1,52.58-33.11L381,215.43a153.39,153.39,0,0,1,28.12-33.85c11.46-10.31,19.88-17.67,32.45-19.26,5.71-.72,10.63,0,27.24,5.16C479.67,170.89,494.22,175.83,511.3,182.75Z" transform="translate(-10.47 -10.27)"/><polyline class="cls-4" points="458.23 188.03 413.71 211.3 369.42 234.46"/><line class="cls-4" x1="419.24" y1="177.15" x2="413.71" y2="211.3"/><path class="cls-2" d="M326.42,87.75h0a52.48,52.48,0,0,1-8.24-19.13c-4.37-21,5.76-38.14,8.24-42.1,2,5.4,4.42,11.08,7.21,17q2,4.28,4.12,8.2l4.09-5.48a53.24,53.24,0,0,1,4.67-11.47A51.78,51.78,0,0,1,364,16.13a75.25,75.25,0,0,1,.52,23.51,73.91,73.91,0,0,1-9.79,27.89,65.16,65.16,0,0,1,18-11.49,62.92,62.92,0,0,1,26.78-4.92L384.62,71.9l-11.16,30.43Z" transform="translate(-10.47 -10.27)"/><path class="cls-5" d="M399.53,200.2a164.14,164.14,0,0,0,45.22-45.63c25.55-38.77,27.59-78,27.48-94.61a183.62,183.62,0,0,0-126.39,71q6.87,33.2,13.72,66.38Z" transform="translate(-10.47 -10.27)"/><path class="cls-4" d="M444,86.83l-88.79,89.25" transform="translate(-10.47 -10.27)"/><line class="cls-4" x1="408.65" y1="101.52" x2="441.58" y2="110.14"/><path class="cls-2" d="M315.36,6.11" transform="translate(-10.47 -10.27)"/><line class="cls-4" x1="326.47" y1="79.34" x2="347.61" y2="27.76"/><path class="cls-4" d="M344,69" transform="translate(-10.47 -10.27)"/><path class="cls-4" d="M342.45,76.71l19.64-3.09" transform="translate(-10.47 -10.27)"/></g><g id="Laptop"><path class="cls-6" d="M259.2,232.32" transform="translate(-10.47 -10.27)"/><path class="cls-6" d="M141.87,207.67h0Z" transform="translate(-10.47 -10.27)"/><path class="cls-7" d="M141.87,86.84V209.23a10.83,10.83,0,0,0,10.68,11l216.91-1a10.84,10.84,0,0,0,10.6-11V91a5.63,5.63,0,0,0-5.54-5.73H143.34A1.5,1.5,0,0,0,141.87,86.84Z" transform="translate(-10.47 -10.27)"/><path class="cls-8" d="M189.22,204.68H300.46a3.6,3.6,0,0,1,3.6,3.6v3.21a2,2,0,0,1-2,2H190.82a3.6,3.6,0,0,1-3.6-3.6v-3.21a2,2,0,0,1,2-2Z"/><path class="cls-9" d="M106.49,316.39" transform="translate(-10.47 -10.27)"/><path class="cls-10" d="M376.5,329H145.43a11.64,11.64,0,0,1-4.1-1.82,12.58,12.58,0,0,1-3.89-4.42l2.19-97.23a6,6,0,0,1,5.8-6.2H376.5a6,6,0,0,1,5.79,6.2l2.76,97.78Z" transform="translate(-10.47 -10.27)"/><path class="cls-8" d="M137.44,323l3.32,1.53q57.11.28,115.28.32s3.2.2,122.42-.21a16.17,16.17,0,0,0,5-.64,3.79,3.79,0,0,0,1.38-.8l2.06,2.63c1.17,1.5-2.22,3-6.86,3H144.53c-3.91,0-7.09-1.06-7.09-2.37Z" transform="translate(-10.47 -10.27)"/><rect class="cls-8" x="146.57" y="229.5" width="205.05" height="50.46"/><line class="cls-11" x1="146.57" y1="247.87" x2="351.62" y2="247.87"/><line class="cls-11" x1="145.37" y1="237.69" x2="350.41" y2="237.69"/><line class="cls-11" x1="146.2" y1="258.05" x2="351.25" y2="258.05"/><line class="cls-11" x1="146.57" y1="269.88" x2="351.62" y2="269.88"/><rect class="cls-12" x="218.63" y="284.76" width="54.01" height="27.91"/></g><g id="Content"><rect class="cls-13" x="140.25" y="84.7" width="215.27" height="112.48"/><path class="cls-14" d="M367.21,207.45H237.67a52.52,52.52,0,0,1,16.72-17,41.44,41.44,0,0,1,7.48-3.71c12.21-4.48,17.68,3,32.31.57,8.22-1.38,15.84-2.72,24.84-7.59,7.76-4.19,11.11-8.06,13-10.65,1.17-1.64,2.8-4.25,5.69-12.43a178.2,178.2,0,0,0,6.69-24.53c1.6-8.71,1.41-11.86,4-17.75,3.15-7.21,6.27-9,7.11-9.44,4.92-2.59,10-.4,11.32.24Z" transform="translate(-10.47 -10.27)"/><text class="cls-15" transform="translate(176.49 128.34) scale(0.97 1)">Lea<tspan class="cls-16" x="35.03" y="0">r</tspan><tspan x="43.85" y="0">n F</tspan><tspan class="cls-17" x="74.71" y="0">r</tspan><tspan class="cls-18" x="83.39" y="0">om</tspan><tspan x="0" y="24.47">Home</tspan></text><path class="cls-13" d="M153.11,56.07" transform="translate(-10.47 -10.27)"/></g></svg>