<svg xmlns="http://www.w3.org/2000/svg" viewBox="0 0 372.55 245.51"><defs><style>.cls-1,.cls-8{fill:#fbb03b;}.cls-1{opacity:0.5;}.cls-2{fill:#0071bc;}.cls-3{fill:#00a99d;}.cls-12,.cls-4{fill:none;}.cls-4{stroke:#e6e6e6;}.cls-10,.cls-12,.cls-14,.cls-15,.cls-4,.cls-9{stroke-miterlimit:10;}.cls-5{fill:#f7931e;}.cls-6{fill:#073763;}.cls-7{fill:#d4145a;}.cls-17,.cls-9{fill:#fff;}.cls-10,.cls-12,.cls-9{stroke:#000;}.cls-10,.cls-11{fill:#333;}.cls-13{fill:#999;}.cls-14{fill:#b3b3b3;}.cls-14,.cls-15{stroke:#999;}.cls-15{fill:gray;}.cls-16{fill:#8cc63f;}.cls-17{font-size:16.96px;font-family:SegoeUI-Bold, Segoe UI;font-weight:700;}.cls-18{letter-spacing:0em;}.cls-19{letter-spacing:0em;}</style></defs><title>Desktop</title><g id="Styled_Background" data-name="Styled Background"><path class="cls-1" d="M35.77,249.77c0-96.82,75.92-175.31,169.58-175.31S374.94,153,374.94,249.77" transform="translate(-14.97 -58.85)"/><path class="cls-2" d="M96.09,200.49" transform="translate(-14.97 -58.85)"/><path class="cls-3" d="M15,172.32c2,5.85,10.5,28.39,33.9,41.35A69.61,69.61,0,0,0,86,222.18a69.82,69.82,0,0,1-55.2,2.13l23,18.33a49.09,49.09,0,0,0,21.18,11c26,5.89,56.37-12.58,56.37-12.58h0l4.89-17c.7-6.26,3.64-37.9-17.79-65a82.19,82.19,0,0,0-38.33-26.79q15.48,34.17,30.94,68.34A118,118,0,0,0,91,173.94c-8.29-8.22-14.37-14.09-23.69-15.63-4.23-.69-7.9-.3-20.37,3.31C38.77,164,27.83,167.42,15,172.32Z" transform="translate(-14.97 -58.85)"/><polyline class="cls-4" points="31.31 126.5 63.86 145.51 96.26 164.44"/><line class="cls-4" x1="60.55" y1="119.09" x2="63.86" y2="145.51"/><path class="cls-5" d="M112.71,168.61a125.13,125.13,0,0,1-32.56-36.25C62.06,101.88,61.46,71.6,61.92,58.85a136.22,136.22,0,0,1,64.26,27.79,140.4,140.4,0,0,1,28.06,30Q148.36,142,142.5,167.4Z" transform="translate(-14.97 -58.85)"/><path class="cls-4" d="M82.32,80.23l63.94,70.9" transform="translate(-14.97 -58.85)"/><path class="cls-4" d="M121.08,94.13l14.28,42.75" transform="translate(-14.97 -58.85)"/><line class="cls-4" x1="85.23" y1="41.21" x2="60.55" y2="47.04"/><path class="cls-2" d="M320,220.81" transform="translate(-14.97 -58.85)"/><path class="cls-6" d="M387.52,191.7c-2.18,5.77-11.34,28-35.12,40.2A69.43,69.43,0,0,1,315,239.17a69.85,69.85,0,0,0,55.11,4l-23.54,17.56A48.78,48.78,0,0,1,325.06,271c-26.2,5-56-14.44-56-14.44h0l-4.36-17.13c-.52-6.28-2.5-38,19.74-64.36a81.87,81.87,0,0,1,39.11-25.5q-16.49,33.65-33,67.28a117.68,117.68,0,0,1,20.92-26.08c8.53-7.93,14.79-13.6,24.15-14.83,4.24-.56,7.9,0,20.26,4C364,182.56,374.82,186.37,387.52,191.7Z" transform="translate(-14.97 -58.85)"/><polyline class="cls-4" points="340.86 144.83 307.75 162.75 274.8 180.59"/><line class="cls-4" x1="311.86" y1="136.45" x2="307.75" y2="162.75"/><path class="cls-7" d="M250,118.53h0a41.12,41.12,0,0,1-6.13-14.74c-3.26-16.21,4.28-29.38,6.13-32.43,1.51,4.17,3.28,8.54,5.36,13.06,1,2.19,2,4.3,3.07,6.31l3-4.22a41.43,41.43,0,0,1,3.47-8.83,39.17,39.17,0,0,1,13-14.32,60.15,60.15,0,0,1,.38,18.11A58.13,58.13,0,0,1,271.07,103a48.6,48.6,0,0,1,13.41-8.85,45.38,45.38,0,0,1,19.92-3.79l-11.11,16Q289.14,118,285,129.76Z" transform="translate(-14.97 -58.85)"/><path class="cls-8" d="M304.38,205.14A124.36,124.36,0,0,0,338,170c19-29.86,20.52-60.1,20.44-72.87a135.93,135.93,0,0,0-65.06,25.65,139.63,139.63,0,0,0-28.95,29.05L274.65,203Z" transform="translate(-14.97 -58.85)"/><path class="cls-4" d="M337.43,117.81q-33,34.38-66.05,68.75" transform="translate(-14.97 -58.85)"/><line class="cls-4" x1="303.98" y1="78.19" x2="328.47" y2="84.83"/><path class="cls-2" d="M241.77,55.64" transform="translate(-14.97 -58.85)"/><line class="cls-4" x1="242.85" y1="61.11" x2="258.57" y2="21.38"/><path class="cls-4" d="M263.06,104" transform="translate(-14.97 -58.85)"/><path class="cls-4" d="M261.92,110l14.61-2.38" transform="translate(-14.97 -58.85)"/></g><g id="Laptop"><path class="cls-9" d="M200,229.88" transform="translate(-14.97 -58.85)"/><path class="cls-9" d="M112.71,210.89h0Z" transform="translate(-14.97 -58.85)"/><path class="cls-10" d="M112.71,117.82v94.27a8.21,8.21,0,0,0,8,8.48L282,219.82a8.21,8.21,0,0,0,7.88-8.48V121.06a4.27,4.27,0,0,0-4.11-4.42h-172A1.15,1.15,0,0,0,112.71,117.82Z" transform="translate(-14.97 -58.85)"/><path class="cls-11" d="M141.26,157.65h81.31a3.6,3.6,0,0,1,3.6,3.6v1.19a2,2,0,0,1-2,2H142.86a3.6,3.6,0,0,1-3.6-3.6v-1.19a2,2,0,0,1,2-2Z"/><path class="cls-12" d="M86.4,294.63" transform="translate(-14.97 -58.85)"/><path class="cls-13" d="M287.25,304.36H115.36a8.71,8.71,0,0,1-3-1.4,9.82,9.82,0,0,1-2.89-3.4q.83-37.46,1.63-74.9a4.56,4.56,0,0,1,4.31-4.77H287.25a4.56,4.56,0,0,1,4.31,4.77q1,37.67,2.05,75.32Z" transform="translate(-14.97 -58.85)"/><path class="cls-11" d="M109.42,299.68l2.47,1.18q42.48.22,85.75.25s2.38.15,91.07-.16a11.59,11.59,0,0,0,3.7-.5,2.84,2.84,0,0,0,1-.61l1.53,2c.87,1.16-1.65,2.29-5.1,2.29H114.7c-2.92,0-5.28-.82-5.28-1.83Z" transform="translate(-14.97 -58.85)"/><rect class="cls-11" x="109.03" y="176.77" width="152.53" height="38.86"/><line class="cls-14" x1="109.03" y1="190.92" x2="261.56" y2="190.92"/><line class="cls-14" x1="108.13" y1="183.08" x2="260.66" y2="183.08"/><line class="cls-14" x1="108.75" y1="198.76" x2="261.28" y2="198.76"/><line class="cls-14" x1="109.03" y1="207.87" x2="261.56" y2="207.87"/><rect class="cls-15" x="162.63" y="219.33" width="40.18" height="21.5"/></g><g id="Content"><rect class="cls-6" x="104.33" y="65.24" width="160.13" height="86.63"/><path class="cls-16" d="M280.34,210.72H184a39.83,39.83,0,0,1,12.44-13.11,30,30,0,0,1,5.56-2.86c9.08-3.46,13.15,2.32,24,.43,6.12-1.06,11.79-2.09,18.48-5.84,5.77-3.23,8.26-6.21,9.64-8.2.87-1.27,2.09-3.28,4.23-9.57a140.31,140.31,0,0,0,5-18.9c1.19-6.71,1.05-9.13,3-13.67,2.34-5.55,4.66-6.93,5.29-7.27,3.66-2,7.41-.31,8.42.18Z" transform="translate(-14.97 -58.85)"/><text class="cls-17" transform="translate(131.29 98.86) scale(0.93 1)">Lea<tspan class="cls-18" x="26.98" y="0">r</tspan><tspan x="33.78" y="0">n F</tspan><tspan class="cls-19" x="57.54" y="0">r</tspan><tspan x="64.23" y="0">om</tspan><tspan x="0" y="18.85">Home</tspan></text><path class="cls-6" d="M121.08,94.13" transform="translate(-14.97 -58.85)"/></g></svg>