<svg xmlns="http://www.w3.org/2000/svg" viewBox="0 0 1280 455.37"><defs><style>.cls-1{fill:#0f325a;}.cls-2{fill:#69ffcf;}.cls-3{opacity:0.5;}.cls-4{opacity:0.8;}.cls-10,.cls-5{fill:#29abe2;}.cls-6{fill:#6e8791;}.cls-7{fill:#fff;}.cls-8{fill:#0c6d95;}.cls-9{fill:none;stroke:#000;stroke-miterlimit:10;stroke-width:0.5px;}.cls-10{font-size:94.07px;font-family:MyriadPro-Regular, Myriad Pro;}</style></defs><title>Mail</title><g id="Layer_1" data-name="Layer 1"><rect class="cls-1" width="1280" height="455.37"/><circle class="cls-2" cx="835.91" cy="144.24" r="12.24"/><g class="cls-3"><circle class="cls-2" cx="866.8" cy="127.12" r="8.75"/></g><g class="cls-4"><circle class="cls-2" cx="873.18" cy="174.64" r="9.87"/></g></g><g id="Mail"><rect class="cls-5" x="553.29" y="197.87" width="218.72" height="127.8"/><path class="cls-6" d="M553,197.87a234,234,0,0,1,39.75-30.11,230.28,230.28,0,0,1,70-27.69,168.65,168.65,0,0,1,61.6,19.58,173.23,173.23,0,0,1,47.41,38.22,143.56,143.56,0,0,1-23.3,16.3c-29,16.26-55.71,17.76-69.47,18.53C619.84,236,568.08,206.93,553,197.87Z" transform="translate(0)"/><rect class="cls-7" x="560.74" y="135.87" width="203.14" height="124.17"/><path class="cls-8" d="M550.92,197.87" transform="translate(0)"/><line class="cls-9" x1="553.29" y1="259.51" x2="772.01" y2="260.56"/><path class="cls-8" d="M553,197.87l84.51,62-84.17,65.77Q553.13,261.78,553,197.87Z" transform="translate(0)"/><path class="cls-8" d="M772.16,197.87l-87.27,62.69,87.17,64.92Z" transform="translate(0)"/><text class="cls-10" transform="translate(629.11 223.28) scale(0.84 1)">@</text></g></svg>