<svg xmlns="http://www.w3.org/2000/svg" viewBox="0 0 1280 698"><defs><style>.cls-1{fill:#0f325a;}.cls-2,.cls-4,.cls-5{fill:#69ffcf;}.cls-2{opacity:0.5;}.cls-3{fill:#dcff8a;}.cls-4{opacity:0.6;}.cls-6{fill:#073763;}.cls-7{fill:#fbb03b;}.cls-8,.cls-9{stroke:#000;}.cls-12,.cls-8,.cls-9{stroke-miterlimit:10;}.cls-12,.cls-9{fill:none;}.cls-10{fill:#ff0;}.cls-11{fill:#f7931e;}.cls-12{stroke:#073763;}.cls-13{fill:#fff;}</style></defs><title>Owl-background</title><g id="Background"><rect class="cls-1" width="1280" height="698"/><path class="cls-2" d="M876.77,337.65c2.06,9,25.24,117.41-50,179.64-40.4,33.4-87.39,35.47-165.1,38.9-81.31,3.59-159.83,7-202.63-38.9-6.4-6.88-11.36-16.48-27.51-130.44C421.07,313.3,415.86,276.52,418,265.07c16.95-91.34,140-182.56,243.23-161,56,11.69,90.32,53.23,150.52,126C847.4,273.22,867.53,297.55,876.77,337.65Z"/><path class="cls-3" d="M431.75,416.65"/><ellipse class="cls-4" cx="849.1" cy="211.06" rx="15.46" ry="14.8"/><ellipse class="cls-5" cx="818.18" cy="105.8" rx="15.46" ry="14.8"/><ellipse class="cls-5" cx="838.79" cy="566.32" rx="5.15" ry="4.93"/><path class="cls-5" d="M483.28,104.16h0Z"/><ellipse class="cls-5" cx="720.29" cy="100.87" rx="6.87" ry="6.58"/><ellipse class="cls-4" cx="433.47" cy="605.8" rx="15.46" ry="14.8"/></g><g id="Layer_1" data-name="Layer 1"><path class="cls-6" d="M528.82,522.69c-2.37-1.26-60.25-38-37.3-77.69,18.88-32.66,76.85-45.44,84.62-47.07"/><path class="cls-6" d="M715.84,390.47,807.48,354c-.93,12.37-4.87,34.8-22.94,59.32-17.61,23.91-40.56,38.82-54.18,46.48"/><path d="M582,192.61l53,15.48,53.61-14.75q-.63,33.06-1.27,66.12c-16.44,1.14-33.9,1.84-52.28,1.88-19.43.05-37.83-.63-55.11-1.81"/><path class="cls-6" d="M803.86,170.63c-59.21,11.72-111,25.89-170.19,37.62-58.4-11.89-102.39-24.29-160.79-36.18C531,162,574.72,152.4,632.84,142.3,692.33,152.56,744.38,160.37,803.86,170.63Z"/><path class="cls-7" d="M565.52,574.26a16.79,16.79,0,0,1-3.41-7.06c-1.65-8,3.92-14.27,5.22-15.66L580,554.78A84.7,84.7,0,0,0,571.25,565,77.11,77.11,0,0,0,565.52,574.26Z"/><path class="cls-7" d="M578.5,577.66a16.93,16.93,0,0,1-3.41-7c-1.65-8,3.92-14.28,5.22-15.66L593,558.19a83.93,83.93,0,0,0-8.72,10.22A76.27,76.27,0,0,0,578.5,577.66Z"/><path class="cls-7" d="M552.58,570a16.93,16.93,0,0,1-3.41-7c-1.65-8,3.92-14.28,5.22-15.66L567,550.54a83.93,83.93,0,0,0-8.72,10.22A76.27,76.27,0,0,0,552.58,570Z"/><path class="cls-7" d="M725.16,562.48a16.49,16.49,0,0,0,2.26-7.45c.35-8.15-6.15-13.57-7.65-14.76l-12,5A86.42,86.42,0,0,1,718,554.13,79.08,79.08,0,0,1,725.16,562.48Z"/><path class="cls-7" d="M712.87,567.66a16.5,16.5,0,0,0,2.25-7.46c.36-8.14-6.15-13.56-7.65-14.75l-12,5a85.64,85.64,0,0,1,10.25,8.89A78.09,78.09,0,0,1,712.87,567.66Z"/><path class="cls-7" d="M737.28,556.47a16.45,16.45,0,0,0,2.26-7.45c.35-8.14-6.15-13.56-7.65-14.75l-12,5a86.42,86.42,0,0,1,10.25,8.89A80.1,80.1,0,0,1,737.28,556.47Z"/><path class="cls-8" d="M521.91,148.42"/><path class="cls-9" d="M480.47,157.68"/><path class="cls-9" d="M480.47,141.72"/><path class="cls-10" d="M549.79,406.72c-.36,10.51-1.52,31.73-9.56,48.89-4,8.62-6.57,11.18-10.48,18.84-1.32,2.59-27.5,38-11,53.06,27.25,25,63.08,37.61,104.53,38,59.05.57,141.33-20.53,138.24-64.17-2.21-31.26-24.12-63.68-27.87-67.78-8-8.75-11.14-25-17.42-29.21"/><path class="cls-11" d="M625.91,386.44"/><path class="cls-6" d="M516.13,243.32"/><path class="cls-11" d="M631.48,359.54"/><path class="cls-6" d="M896,158.46"/><path class="cls-6" d="M845.86,266.7"/><path class="cls-12" d="M405.67,622"/><path class="cls-7" d="M389,515.32"/><path class="cls-9" d="M449.5,541.66"/><path class="cls-6" d="M750.82,353.49a73.28,73.28,0,0,1-11.25,30.08c-13.64,20.87-34.17,29.11-41.56,31.7,2-5.17,1.81-5,3.78-10.13-3.2,2.31-26.86,18.79-67.18,19.12-41.16.33-65.83-16.46-69-18.67,1.89,4.67,1.4,4.8,3.13,9.53a.76.76,0,0,1-1,1,74.7,74.7,0,0,1-36.1-29.33A85.71,85.71,0,0,1,518.58,349l8.94-6.61-14.47,10.71a3.12,3.12,0,0,1-3.58.1,2.44,2.44,0,0,1-1-3.06,121.89,121.89,0,0,1,10.81-41.23A131.62,131.62,0,0,1,540.93,276c-5.16-2.76-10.41-11.14-11.69-24.62,0,0-2.07-2.67-.25-16.11v0c.29-.58,4.89,4.84,11,9.54a67.7,67.7,0,0,0,12.37,7.94c1.9.85,3.55,1.45,4.72,1.84l-6-2.44a774.5,774.5,0,0,0,82.15,4.12A776.88,776.88,0,0,0,711.81,252L710,253.77a49.52,49.52,0,0,0,4.65-2.1c1.67-.86,5.86-3.37,12.1-8.8,5.94-5.17,10.35-11.07,10.65-10.47a0,0,0,0,1,0,0c2.28,14.24.31,17.14.31,17.14-.81,14.37-5.77,23.43-10.83,26.52a141.49,141.49,0,0,1,22.79,34.27,136.73,136.73,0,0,1,12.23,43.52c.12,1.32,0,2.63-.9,3.29-2.5,1.87-9.43-2.58-9.39-2.65s1.46.61,5.81,2.64"/><path class="cls-9" d="M881.59,391.68"/><path class="cls-11" d="M650.16,359.43l-16.25,15.29-16.8-15.21c.35-.33,6.47-5.8,17.3-5.55C644.23,354.18,649.6,358.93,650.16,359.43Z"/><ellipse class="cls-13" cx="589.1" cy="329.47" rx="36.67" ry="32.89"/><ellipse cx="589.1" cy="329.47" rx="29.05" ry="29.31"/><ellipse class="cls-13" cx="682.6" cy="330.13" rx="36.27" ry="32.89"/><path d="M712,332.17c-1.13,16.77-16.6,29.14-32.82,27.53-15.46-1.53-27.95-15.39-27-31.35,1-16.78,16.42-29.36,32.75-27.79C700.47,302.05,713.05,316.06,712,332.17Z"/></g></svg>