<svg xmlns="http://www.w3.org/2000/svg" viewBox="0 0 150 200"><defs><style>.cls-1{fill:#0f325a;}.cls-2,.cls-4,.cls-5{fill:#69ffcf;}.cls-2{opacity:0.5;}.cls-3{fill:#dcff8a;}.cls-4{opacity:0.6;}.cls-6{fill:#073763;}.cls-7{fill:#fbb03b;}.cls-8,.cls-9{stroke:#000;}.cls-12,.cls-8,.cls-9{stroke-miterlimit:10;}.cls-12,.cls-9{fill:none;}.cls-10{fill:#ff0;}.cls-11{fill:#f7931e;}.cls-12{stroke:#073763;}.cls-13{fill:#fff;}</style></defs><title>owl</title><g id="Background"><rect class="cls-1" width="150" height="200"/><path class="cls-2" d="M144.56,91c.6,2.72,7.34,35.7-14.57,54.61-11.76,10.16-25.44,10.79-48.06,11.83-23.68,1.09-46.53,2.14-59-11.83-1.87-2.09-3.31-5-8-39.65-3-22.36-4.56-33.54-3.94-37C15.92,41.15,51.75,13.42,81.8,20c16.29,3.55,26.3,16.18,43.82,38.31C136,71.4,141.87,78.79,144.56,91Z"/><path class="cls-3" d="M15,115"/><circle class="cls-4" cx="136.5" cy="52.5" r="4.5"/><circle class="cls-5" cx="127.5" cy="20.5" r="4.5"/><circle class="cls-5" cx="133.5" cy="160.5" r="1.5"/><path class="cls-5" d="M30,20h0Z"/><circle class="cls-5" cx="99" cy="19" r="2"/><circle class="cls-4" cx="15.5" cy="172.5" r="4.5"/></g><g id="Layer_1" data-name="Layer 1"><path class="cls-6" d="M43.26,147.23c-.69-.38-17.54-11.54-10.86-23.61,5.5-9.93,22.37-13.82,24.63-14.31"/><path class="cls-6" d="M97.71,107l26.68-11.1a35.57,35.57,0,0,1-6.68,18,50.91,50.91,0,0,1-15.78,14.13"/><path d="M58.75,46.89,74.18,51.6l15.61-4.49q-.18,10.05-.37,20.1c-4.79.35-9.87.56-15.22.57-5.66,0-11-.19-16-.55"/><path class="cls-6" d="M123.33,40.21C106.09,43.77,91,48.08,73.78,51.64,56.78,48,44,44.26,27,40.65c16.92-3.07,29.65-6,46.57-9C90.86,34.71,106,37.09,123.33,40.21Z"/><path class="cls-7" d="M53.94,162.91a5.34,5.34,0,0,1-1-2.14A5.75,5.75,0,0,1,54.47,156l3.68,1a25.45,25.45,0,0,0-2.54,3.11A24.79,24.79,0,0,0,53.94,162.91Z"/><path class="cls-7" d="M57.72,164a5.13,5.13,0,0,1-1-2.15A5.76,5.76,0,0,1,58.25,157l3.68,1a24.41,24.41,0,0,0-2.54,3.1A24,24,0,0,0,57.72,164Z"/><path class="cls-7" d="M50.18,161.62a5.27,5.27,0,0,1-1-2.14,5.78,5.78,0,0,1,1.52-4.76l3.68,1a25.44,25.44,0,0,0-2.53,3.11A23.38,23.38,0,0,0,50.18,161.62Z"/><path class="cls-7" d="M100.42,159.33a5.18,5.18,0,0,0,.66-2.26,5.81,5.81,0,0,0-2.23-4.49l-3.49,1.51a25.26,25.26,0,0,1,3,2.7A23.39,23.39,0,0,1,100.42,159.33Z"/><path class="cls-7" d="M96.84,160.9a5.09,5.09,0,0,0,.66-2.26,5.83,5.83,0,0,0-2.23-4.49l-3.49,1.51a25.41,25.41,0,0,1,3,2.71A22.43,22.43,0,0,1,96.84,160.9Z"/><path class="cls-7" d="M104,157.51a5.19,5.19,0,0,0,.65-2.27,5.83,5.83,0,0,0-2.22-4.49l-3.49,1.51a26.23,26.23,0,0,1,3,2.71A23.61,23.61,0,0,1,104,157.51Z"/><path class="cls-8" d="M41.25,33.45"/><path class="cls-9" d="M29.18,36.27"/><path class="cls-9" d="M29.18,31.42"/><path class="cls-10" d="M49.36,112c-.1,3.19-.44,9.65-2.78,14.86-1.18,2.62-1.91,3.4-3,5.73-.39.79-8,11.54-3.2,16.13,7.93,7.59,18.36,11.43,30.43,11.55C88,160.42,111.9,154,111,140.74c-.64-9.5-7-19.35-8.11-20.6-2.33-2.66-3.25-7.59-5.07-8.88"/><path class="cls-11" d="M71.53,105.81"/><path class="cls-6" d="M39.57,62.31"/><path class="cls-11" d="M73.15,97.64"/><path class="cls-6" d="M150.15,36.51"/><path class="cls-6" d="M135.56,69.41"/><path class="cls-12" d="M7.41,177.43"/><path class="cls-7" d="M2.55,145"/><path class="cls-9" d="M20.17,153"/><path class="cls-6" d="M107.89,95.8a22.91,22.91,0,0,1-3.28,9.14,24.09,24.09,0,0,1-12.09,9.64c.57-1.57.52-1.51,1.09-3.08-.93.7-7.81,5.71-19.55,5.81-12,.1-19.17-5-20.08-5.67.55,1.42.41,1.45.91,2.89a.23.23,0,0,1-.29.3,21.94,21.94,0,0,1-10.51-8.92,26.81,26.81,0,0,1-3.81-11.49l2.6-2-4.21,3.26a.89.89,0,0,1-1,0,.76.76,0,0,1-.3-.93,38.47,38.47,0,0,1,3.15-12.54,40.42,40.42,0,0,1,6.3-10c-1.5-.84-3-3.39-3.4-7.48,0,0-.6-.82-.07-4.9h0c.08-.18,1.42,1.47,3.2,2.9a19.58,19.58,0,0,0,3.6,2.41c.56.26,1,.44,1.38.56L49.74,65a216.59,216.59,0,0,0,23.91,1.25A213.06,213.06,0,0,0,96.53,65l-.54.53a13.39,13.39,0,0,0,1.36-.64,19.64,19.64,0,0,0,3.52-2.67c1.73-1.57,3-3.37,3.1-3.18h0c.66,4.33.09,5.22.09,5.22-.24,4.36-1.68,7.12-3.15,8.06A43,43,0,0,1,111.1,95.92a1.1,1.1,0,0,1-.26,1c-.73.56-2.74-.79-2.73-.81s.42.19,1.69.8"/><path class="cls-9" d="M146,107.41"/><path class="cls-11" d="M78.58,97.6l-4.73,4.65L69,97.63a7.23,7.23,0,0,1,5-1.69A7,7,0,0,1,78.58,97.6Z"/><ellipse class="cls-13" cx="60.81" cy="88.5" rx="10.67" ry="10"/><ellipse cx="60.81" cy="88.5" rx="8.46" ry="8.91"/><ellipse class="cls-13" cx="88.03" cy="88.7" rx="10.56" ry="10"/><path d="M96.58,89.32A8.92,8.92,0,0,1,87,97.69a9.08,9.08,0,0,1-7.86-9.54,8.91,8.91,0,0,1,9.54-8.44A9.07,9.07,0,0,1,96.58,89.32Z"/></g></svg>