<svg xmlns="http://www.w3.org/2000/svg" viewBox="0 0 1280 349"><defs><style>.cls-1{fill:#0f325a;}.cls-2{fill:#ff0;opacity:0.25;}.cls-3{fill:#29abe2;}.cls-4{fill:#4d4d4d;}.cls-5{fill:#ccc;}.cls-6{fill:#f2f2f2;}.cls-7{fill:none;stroke:gray;stroke-miterlimit:10;stroke-width:2px;}</style></defs><title>Resources</title><g id="Layer_1" data-name="Layer 1"><rect class="cls-1" width="1280" height="349"/></g><g id="Book_Cover" data-name="Book Cover"><path class="cls-2" d="M815.79,249.46,691.55,108.81l-183.38-4.29L377.6,270.32a482.76,482.76,0,0,0,89,38.1A470.5,470.5,0,0,0,583.8,329.36,477.61,477.61,0,0,0,719.55,299,497.79,497.79,0,0,0,815.79,249.46Z" transform="translate(0)"/><path class="cls-3" d="M376.06,43.21l414.85-7.5a9.36,9.36,0,0,1,9.37,9L811,242.38a9.44,9.44,0,0,1-8.62,10.07L624,264.39a9.18,9.18,0,0,0-6.92,4l-.79,1.15L563,271.13l-.65-.84a9.11,9.11,0,0,0-7.3-3.58l-173.28,2a9.37,9.37,0,0,1-9.32-9.29L367,53A9.43,9.43,0,0,1,376.06,43.21Z" transform="translate(0)"/><path class="cls-3" d="M585.56,245.71" transform="translate(0)"/></g><g id="Book"><path class="cls-4" d="M771.49,35.61c-83.23,5.23-144,10-152.9,11.09-9.86,1.23-15.5,5.42-17,6.59a31.19,31.19,0,0,0-2.84,2.53C580.84,74.07,588.6,181.28,588.6,181.33h0q3.28,49.5,2.09,83.38l23.13-1.9A31.22,31.22,0,0,1,618,255.1a34.1,34.1,0,0,1,13.29-9.94c9.38-3.83,70-9.29,153.32-12.6Z" transform="translate(0)"/><path class="cls-4" d="M381.08,50c91.11-1.62,157.68-1.87,167.5-1.49,10.84.43,17.29,4.16,19,5.21a33.18,33.18,0,0,1,3.28,2.3C591.71,72.85,591,180.91,591,181h0c0,33.25,1.26,61.1,3.76,83.71H569.42a30.43,30.43,0,0,0-5.07-7.38,36.66,36.66,0,0,0-15.21-8.86c-10.5-3.07-76.93-3.55-168.06,0Z" transform="translate(0)"/><path class="cls-5" d="M773.14,29.44c-83.22,5.23-144,10-152.89,11.09-9.87,1.24-15.51,5.43-17,6.6a30.56,30.56,0,0,0-2.85,2.53c-17.9,18.24-10.15,125.46-10.14,125.51h0c2.19,33,2.87,60.74,2.09,83.38l23.13-1.9a30.55,30.55,0,0,1,4.14-7.71A34.1,34.1,0,0,1,632.91,239c9.37-3.84,70-9.29,153.31-12.6Z" transform="translate(0)"/><path class="cls-5" d="M382.73,43.85c91.12-1.61,157.69-1.86,167.5-1.48,10.84.43,17.3,4.16,19,5.21a34,34,0,0,1,3.29,2.3c20.84,16.81,20.14,124.87,20.14,124.92h0c0,33.25,1.27,61.1,3.76,83.72H571.08a30.24,30.24,0,0,0-5.07-7.38,36.66,36.66,0,0,0-15.22-8.86c-10.49-3.08-76.93-3.55-168.06,0Z" transform="translate(0)"/><path class="cls-6" d="M388.53,37.3c88.63-1.54,153.39-1.77,162.94-1.41,10.55.41,16.83,4,18.49,5a32,32,0,0,1,3.2,2.19c20.78,16.41,19.6,119,19.6,119-.26,19.91-.2,49.22,1.5,85.43a74.93,74.93,0,0,0-15.91-11,55.29,55.29,0,0,0-22.46-7.31c-22.52-1.88-83.29-1.67-164.41,1.41Q390,133.93,388.53,37.3Z" transform="translate(0)"/><line class="cls-7" x1="416.78" y1="63.07" x2="551.52" y2="63.07"/><line class="cls-7" x1="416.78" y1="76.82" x2="551.52" y2="76.82"/><line class="cls-7" x1="416.78" y1="90.56" x2="551.52" y2="90.56"/><line class="cls-7" x1="416.78" y1="104.31" x2="551.52" y2="104.31"/><line class="cls-7" x1="416.78" y1="115.77" x2="551.52" y2="115.77"/><line class="cls-7" x1="416.78" y1="129.52" x2="551.52" y2="129.52"/><line class="cls-7" x1="416.78" y1="143.26" x2="551.52" y2="143.26"/><line class="cls-7" x1="416.78" y1="157.01" x2="551.52" y2="157.01"/><line class="cls-7" x1="416.78" y1="170.76" x2="551.52" y2="170.76"/><line class="cls-7" x1="416.78" y1="184.51" x2="551.52" y2="184.51"/><path class="cls-6" d="M768.51,17c-18.83.69-44.49,1.85-75,3.93-70.28,4.8-85.82,9-92.85,14.42a24.85,24.85,0,0,0-2.7,2.48c-9.41,9.6-11.8,22.8-13,30.91-4.3,29.26-2.66,45.78-2.66,45.78,2.94,29.63,6,74.82,10,132.93a113.24,113.24,0,0,1,16-12.68C629.74,220.68,651.06,217.24,673,215a682.65,682.65,0,0,1,107-2Z" transform="translate(0)"/><line class="cls-7" x1="744" y1="49.34" x2="620.97" y2="60.31"/><line class="cls-7" x1="745.04" y1="63.04" x2="622.01" y2="74.01"/><line class="cls-7" x1="746.08" y1="76.74" x2="623.05" y2="87.71"/><line class="cls-7" x1="747.12" y1="90.44" x2="624.09" y2="101.41"/><line class="cls-7" x1="747.99" y1="101.86" x2="624.96" y2="112.83"/><line class="cls-7" x1="749.03" y1="115.56" x2="626" y2="126.53"/><line class="cls-7" x1="750.07" y1="129.26" x2="627.04" y2="140.23"/><line class="cls-7" x1="751.11" y1="142.96" x2="628.08" y2="153.93"/><line class="cls-7" x1="752.15" y1="156.67" x2="629.13" y2="167.64"/><line class="cls-7" x1="753.19" y1="170.37" x2="630.17" y2="181.34"/></g></svg>