<svg xmlns="http://www.w3.org/2000/svg" viewBox="0 0 190.07 176.31"><defs><style>.cls-1{fill:#fff;}.cls-1,.cls-4,.cls-6{stroke:#000;stroke-miterlimit:10;}.cls-2{fill:#00a99d;}.cls-3{fill:#073763;}.cls-4{fill:none;}.cls-5,.cls-6{fill:#009245;}.cls-7{fill:#29abe2;}</style></defs><title>Spout</title><g id="Layer_1" data-name="Layer 1"><path class="cls-1" d="M181.37,369.16" transform="translate(-88.69 -165.92)"/><path class="cls-2" d="M238,313q-.13,5.43-.46,11.19-.37,6.4-1,12.38a24.51,24.51,0,0,0,31.41,0L266.12,314" transform="translate(-88.69 -165.92)"/><path class="cls-1" d="M249.52,415.73" transform="translate(-88.69 -165.92)"/><path class="cls-1" d="M247.79,312.53" transform="translate(-88.69 -165.92)"/><path class="cls-3" d="M93.34,209.94l24.74,24a1.46,1.46,0,0,0,2,0l3.23-2.82a3,3,0,0,1,1.49-.71l58.39-9.82,6.46,5.24-.06-14.69L182.88,215l-49.37,4.32a.69.69,0,0,1-.51-1.22l31.56-26.36a1.39,1.39,0,0,0,0-2.1l-26.38-23.54a.64.64,0,0,0-.88,0L89.62,203a2.4,2.4,0,0,0-.11,3.7C91.11,208.12,93.12,209.73,93.34,209.94Z" transform="translate(-88.69 -165.92)"/><path class="cls-1" d="M170.82,236.85" transform="translate(-88.69 -165.92)"/><path class="cls-1" d="M168.27,227.33" transform="translate(-88.69 -165.92)"/><path class="cls-2" d="M236.13,317.56q-1.45,3.94-2.9,7.91-2.29-1.2-4.73-2.64c-1.2-.71-2.35-1.43-3.47-2.15a62.34,62.34,0,0,1,1.76-9.07,55.81,55.81,0,0,1,6.61-15.11,22.28,22.28,0,0,1,6.57-4,16.41,16.41,0,0,1,5.46-1.06v0c.57,1.56,1.37,3.7,2.38,6.24,1.79,4.53,2.58,5.81,3,5.2,1.19-1.83.75-1.32,2.47-5a62.53,62.53,0,0,0,2.35-6.42l.18.05a16,16,0,0,1,5.5.64,21.77,21.77,0,0,1,6.73,3.48,61.12,61.12,0,0,1,6,10.15c4.15,8.77,5.22,10.75,4.55,12.45-.61,1.53-2.17,2.33-3.72,3.13a10.14,10.14,0,0,1-4,1.11l-4.56-6.07" transform="translate(-88.69 -165.92)"/><path class="cls-4" d="M273.1,327.86" transform="translate(-88.69 -165.92)"/></g><g id="Flower"><path class="cls-1" d="M260.66,297.86h-.31" transform="translate(-88.69 -165.92)"/><path class="cls-5" d="M251,275.7l.07,19.43h0" transform="translate(-88.69 -165.92)"/><path class="cls-6" d="M254.44,266.26" transform="translate(-88.69 -165.92)"/><path class="cls-5" d="M251.58,273.51a23.42,23.42,0,0,0,.64-3.6,32.5,32.5,0,0,0-.66-6.49,11.31,11.31,0,0,0-1.44-2.81h-.05c-.31-.07-1.36,1.39-1.41,1.68a44.12,44.12,0,0,0,.06,6.05,42.91,42.91,0,0,0,1.13,4.71c.62,2.3.79,2.63,1,2.69S251.1,275.69,251.58,273.51Z" transform="translate(-88.69 -165.92)"/><path class="cls-5" d="M253.15,278.91a14.35,14.35,0,0,0,3.15.63,15.46,15.46,0,0,0,5-1.11c.36-.25,1.79-1.57,1.78-1.94v-.06c-.05-.39-1.61-1.63-1.86-1.68a22,22,0,0,0-4.89.35,19,19,0,0,0-3.44,1.63c-1.65.88-1.86,1.1-1.86,1.3S251.21,278.41,253.15,278.91Z" transform="translate(-88.69 -165.92)"/><path class="cls-5" d="M249.12,278.85a18.37,18.37,0,0,1-3.24.35,23.52,23.52,0,0,1-5.55-1.15,8.86,8.86,0,0,1-2.23-1.66v-.05c0-.32,1.42-1.25,1.68-1.28a30.92,30.92,0,0,1,5.26.53,30.49,30.49,0,0,1,3.93,1.49c1.91.8,2.17,1,2.21,1.15S251.09,278.53,249.12,278.85Z" transform="translate(-88.69 -165.92)"/><path class="cls-6" d="M269.36,264.79" transform="translate(-88.69 -165.92)"/><path class="cls-1" d="M175.4,259.76" transform="translate(-88.69 -165.92)"/><path class="cls-1" d="M232.92,187.29" transform="translate(-88.69 -165.92)"/></g><g id="Water"><path class="cls-7" d="M198.56,220.86c0,.38-1.53.63-2.63.64-1.33,0-3-.33-3-.73s1.55-.85,3-.8S198.58,220.49,198.56,220.86Z" transform="translate(-88.69 -165.92)"/><path class="cls-7" d="M201.88,230.48" transform="translate(-88.69 -165.92)"/><path class="cls-7" d="M198.46,216.62c0,.38-1.38.91-2.47,1.13-1.29.26-3,.25-3.06-.14s1.35-1.13,2.75-1.35S198.41,216.25,198.46,216.62Z" transform="translate(-88.69 -165.92)"/><path class="cls-7" d="M198.47,213.47c0,.37-1.41.87-2.5,1.06-1.3.22-3,.16-3.06-.23s1.38-1.1,2.79-1.28S198.43,213.1,198.47,213.47Z" transform="translate(-88.69 -165.92)"/><path class="cls-7" d="M213.32,224.58" transform="translate(-88.69 -165.92)"/><path class="cls-7" d="M199,225c-.09.37-1.62.36-2.71.19-1.3-.22-2.88-.82-2.82-1.22s1.67-.58,3.06-.29C197.73,223.94,199,224.64,199,225Z" transform="translate(-88.69 -165.92)"/><path class="cls-7" d="M208.45,222.06c-.08.37-1.61.38-2.71.21-1.3-.21-2.88-.8-2.82-1.2s1.66-.59,3.05-.31S208.53,221.7,208.45,222.06Z" transform="translate(-88.69 -165.92)"/><path class="cls-7" d="M208.45,217.23c0,.37-1.53.63-2.64.63-1.32,0-3-.33-3-.73s1.55-.85,3-.8C207.07,216.38,208.47,216.85,208.45,217.23Z" transform="translate(-88.69 -165.92)"/><path class="cls-7" d="M207.49,212.83c0,.38-1.51.68-2.61.73-1.32.05-3-.23-3-.63s1.51-.9,2.93-.9C206.08,212,207.5,212.46,207.49,212.83Z" transform="translate(-88.69 -165.92)"/><path class="cls-7" d="M207.88,227.22c-.12.36-1.64.21-2.71-.07-1.28-.34-2.78-1.09-2.69-1.48s1.71-.42,3.07,0S208,226.87,207.88,227.22Z" transform="translate(-88.69 -165.92)"/><path class="cls-7" d="M216.74,225.29c-.17.34-1.66,0-2.68-.42-1.23-.51-2.62-1.45-2.47-1.82s1.75-.2,3,.4S216.9,225,216.74,225.29Z" transform="translate(-88.69 -165.92)"/><path class="cls-7" d="M218.4,219.18c-.14.35-1.65.11-2.7-.24-1.25-.42-2.71-1.27-2.59-1.65s1.74-.31,3.06.2S218.54,218.84,218.4,219.18Z" transform="translate(-88.69 -165.92)"/><path class="cls-7" d="M218.52,214.22c-.1.37-1.63.32-2.71.1-1.3-.25-2.85-.91-2.78-1.3s1.68-.53,3.06-.2S218.61,213.86,218.52,214.22Z" transform="translate(-88.69 -165.92)"/><path class="cls-7" d="M215.73,231c-.21.32-1.64-.22-2.6-.76-1.15-.65-2.42-1.76-2.23-2.11s1.76,0,3,.78S215.93,230.65,215.73,231Z" transform="translate(-88.69 -165.92)"/><path class="cls-7" d="M226.42,230.11c-.21.32-1.64-.23-2.59-.79-1.15-.67-2.4-1.79-2.2-2.14s1.76,0,3,.82S226.63,229.81,226.42,230.11Z" transform="translate(-88.69 -165.92)"/><path class="cls-7" d="M229.3,222.27c-.15.35-1.65.08-2.7-.29-1.24-.44-2.69-1.31-2.56-1.69s1.74-.28,3.06.25S229.44,221.93,229.3,222.27Z" transform="translate(-88.69 -165.92)"/><path class="cls-7" d="M231,217.82c-.15.34-1.66.05-2.69-.33-1.24-.46-2.67-1.35-2.54-1.73s1.75-.26,3.06.29S231.14,217.48,231,217.82Z" transform="translate(-88.69 -165.92)"/><path class="cls-7" d="M223.62,236.92c-.28.26-1.55-.59-2.36-1.35-1-.9-1.94-2.27-1.67-2.57s1.71.44,2.7,1.45S223.89,236.66,223.62,236.92Z" transform="translate(-88.69 -165.92)"/><path class="cls-7" d="M233.88,238c-.32.2-1.41-.87-2.06-1.76-.79-1.07-1.49-2.6-1.17-2.84s1.6.75,2.39,1.93S234.19,237.76,233.88,238Z" transform="translate(-88.69 -165.92)"/><path class="cls-7" d="M237.62,228.43c-.28.26-1.52-.64-2.31-1.42-.94-.93-1.86-2.34-1.58-2.63s1.69.5,2.65,1.54S237.9,228.19,237.62,228.43Z" transform="translate(-88.69 -165.92)"/><path class="cls-7" d="M240.08,223.16c-.23.29-1.61-.36-2.52-1-1.09-.75-2.25-2-2-2.3s1.75.18,2.89,1S240.31,222.86,240.08,223.16Z" transform="translate(-88.69 -165.92)"/><path class="cls-7" d="M230.47,243.78c-.32.21-1.41-.87-2.06-1.76-.79-1.06-1.48-2.6-1.17-2.84s1.6.75,2.39,1.93S230.78,243.58,230.47,243.78Z" transform="translate(-88.69 -165.92)"/><path class="cls-7" d="M244,235c-.29.25-1.53-.64-2.31-1.42-.94-.93-1.87-2.34-1.59-2.63s1.69.49,2.66,1.54S244.22,234.72,244,235Z" transform="translate(-88.69 -165.92)"/><path class="cls-7" d="M248,230c-.29.26-1.53-.64-2.31-1.42-.94-.93-1.87-2.34-1.59-2.63s1.69.5,2.66,1.54S248.23,229.75,248,230Z" transform="translate(-88.69 -165.92)"/><path class="cls-7" d="M254.7,237.76c-.33.18-1.36-1-1.95-1.89-.72-1.11-1.32-2.68-1-2.91s1.55.85,2.26,2.08S255,237.57,254.7,237.76Z" transform="translate(-88.69 -165.92)"/><path class="cls-7" d="M239.4,245.64c-.35.14-1.21-1.13-1.68-2.13-.57-1.19-1-2.83-.6-3s1.43,1,2,2.35S239.75,245.5,239.4,245.64Z" transform="translate(-88.69 -165.92)"/><path class="cls-7" d="M249.32,244.14c-.36.11-1.1-1.23-1.48-2.27-.45-1.24-.69-2.91-.32-3.05s1.33,1.17,1.75,2.52S249.68,244,249.32,244.14Z" transform="translate(-88.69 -165.92)"/><path class="cls-7" d="M259.47,245.73c-.37.11-1.11-1.23-1.49-2.27-.45-1.24-.69-2.91-.31-3.05s1.32,1.17,1.74,2.52S259.82,245.62,259.47,245.73Z" transform="translate(-88.69 -165.92)"/><path class="cls-7" d="M235.91,253.55c-.38.13-1.19-1.27-1.62-2.35-.5-1.3-.79-3-.4-3.21s1.42,1.2,1.9,2.62C236.22,251.88,236.28,253.44,235.91,253.55Z" transform="translate(-88.69 -165.92)"/><path class="cls-7" d="M243.57,254.39c-.37.1-1.08-1.26-1.44-2.3-.43-1.25-.63-2.93-.25-3.06s1.29,1.19,1.69,2.56C243.93,252.81,243.93,254.29,243.57,254.39Z" transform="translate(-88.69 -165.92)"/><path class="cls-7" d="M251.39,252.29c-.38,0-.86-1.42-1-2.51-.21-1.3-.14-3,.25-3.06s1.09,1.39,1.26,2.8S251.76,252.25,251.39,252.29Z" transform="translate(-88.69 -165.92)"/><path class="cls-7" d="M261.82,254.63c-.38,0-.73-1.48-.81-2.59-.1-1.32.13-3,.52-3s1,1.48,1,2.9S262.19,254.63,261.82,254.63Z" transform="translate(-88.69 -165.92)"/></g></svg>