<svg xmlns="http://www.w3.org/2000/svg" viewBox="0 0 330.5 311.66"><defs><style>.cls-1{fill:#fbb03b;opacity:0.4;}.cls-2{fill:#00a99d;}.cls-3{fill:#073763;}.cls-4{fill:#42210b;}.cls-5{fill:#d4145a;}.cls-6{fill:#12b568;}.cls-7{fill:#754c24;}.cls-8{fill:#006837;}.cls-9{fill:#004e29;}.cls-10{fill:#29abe2;}</style></defs><title>Spout</title><g id="Background"><ellipse class="cls-1" cx="176.2" cy="153.72" rx="154.29" ry="126.96"/><path class="cls-2" d="M49.61,300.28c.11,2.9.87,13,10.36,23,25.4,26.71,85.59,24.48,96.46,24.08,17.12-.64,48.46-1.8,57.7-14.29,10.35-14-1.84-34.82-19.51-39.25-10.57-2.66-19.36,1.53-31.75-3-6.54-2.38-10.14-5.75-15.18-11.3-19.11-21.07-26.85-38.21-29.86-37.76-.81.12-1.51,1.54-.8,7.65-1.39,0-3.73.09-6.61.24-11,.55-20.4,1.09-29.45,4.33a33.42,33.42,0,0,0-7.83,3.81,18,18,0,0,0-6,6.55C56.32,284.15,49.12,288.44,49.61,300.28Z" transform="translate(-22.99 -35.87)"/></g><g id="Spout"><path class="cls-3" d="M29.68,118.33l35.55,45a1.76,1.76,0,0,0,2.84.09l4.65-5.3a4,4,0,0,1,2.14-1.32l83.92-18.39q4.64,4.91,9.28,9.82L168,120.71l-9.62,7.08-71,8.09c-1,.11-1.47-1.47-.72-2.28L132,84.21a3.16,3.16,0,0,0,.05-3.93L94.17,36.18a.78.78,0,0,0-1.27,0L24.33,105.38a5.39,5.39,0,0,0-.16,6.93C26.46,114.92,29.36,117.93,29.68,118.33Z" transform="translate(-22.99 -35.87)"/><path class="cls-3" d="M45.64,84.26c-.31-.93-3.06-9.65,2.12-17.1,4.54-6.53,13.25-9.34,21.47-6.7l8.63-8.7c-2-.93-16.22-7.37-29.43-.3-13.71,7.35-20.78,26.29-14.86,45Z" transform="translate(-22.99 -35.87)"/><path class="cls-4" d="M38.07,59.72" transform="translate(-22.99 -35.87)"/></g><g id="Flower"><path class="cls-5" d="M258.75,235.79c-1.32-1.32-5.14-5.55-3.72-11,2-7.73,12.71-11.59,14.23-12.12,1.2,1.31,6.56,7.54,2.68,14.9-2.4,4.55-7.21,7.38-9.64,8.63Z" transform="translate(-22.99 -35.87)"/><path class="cls-6" d="M237.63,266.66a9.54,9.54,0,0,0-2.21-9c-4.78-5.55-15.87-9-28.43-9-.1.88-.78,9.2,10.78,14.56,7.8,3.61,16.57,3.74,19.26,3.72" transform="translate(-22.99 -35.87)"/><path class="cls-7" d="M175.84,338.05c-3.8-5.21,12.91-15.63,28.28-21,13.57-4.71,27-5.81,34-6.11l16.32-1.44a201.57,201.57,0,0,1,45.59,7.55c18.67,5.51,30.13,12.45,36,16.61C211.36,346.83,180,343.75,175.84,338.05Z" transform="translate(-22.99 -35.87)"/><path class="cls-8" d="M214.18,253.28c-.16.09,4.37,2.72,10,6.3,17.66,11.15,24.13,17.47,29.4,16.41a2.75,2.75,0,0,0,1.44-.6c1.74-2-11.88-6.72-30.58-16.6C218.83,255.79,214.34,253.2,214.18,253.28Z" transform="translate(-22.99 -35.87)"/><path class="cls-9" d="M264.74,224.4c-5.34,29.67-7.12,45.49-7.65,54.55-.08,1.24-.34,5.91-.85,12.35-.79,9.93-1.69,18-2.34,23.37h-8a108.5,108.5,0,0,1-.15-24.41,116,116,0,0,1,2.36-13.82C252.55,256.85,261.21,233.61,264.74,224.4Z" transform="translate(-22.99 -35.87)"/><polygon class="cls-8" points="202.2 223.34 202.97 218.86 203.91 224.37 202.2 223.34"/><path class="cls-8" d="M148.92,241.72" transform="translate(-22.99 -35.87)"/><polygon class="cls-8" points="196.81 220.68 188.88 220.56 198.38 221.77 196.81 220.68"/><path class="cls-6" d="M265.57,262.26a9.2,9.2,0,0,1-.62-9c3-5.94,12.81-10.44,25.18-11.69.37.86,3.64,9-6.07,15.41-6.55,4.34-15.14,5.35-17.79,5.6" transform="translate(-22.99 -35.87)"/><path class="cls-8" d="M284.47,246.74c.18.07-3.45,3.11-7.92,7.2-13.9,12.75-18.29,19.62-23.81,19.11a3.31,3.31,0,0,1-1.61-.44c-2.34-1.82,9.6-7.82,24.92-19.42C280.68,249.67,284.28,246.67,284.47,246.74Z" transform="translate(-22.99 -35.87)"/><polygon class="cls-8" points="252.49 217.81 250.34 213.48 251.13 218.99 252.49 217.81"/><polygon class="cls-8" points="256.97 214.65 264.74 213.74 255.76 215.87 256.97 214.65"/></g><g id="Water"><path class="cls-10" d="M181.15,138.8c0,.71-2.25,1.18-3.86,1.19-1.94,0-4.36-.62-4.37-1.37s2.26-1.59,4.34-1.49C179.12,137.22,181.18,138.1,181.15,138.8Z" transform="translate(-22.99 -35.87)"/><path class="cls-10" d="M186,156.81" transform="translate(-22.99 -35.87)"/><path class="cls-10" d="M181,130.85c.08.7-2,1.71-3.61,2.12-1.9.48-4.36.46-4.49-.27s2-2.12,4-2.54C178.77,129.79,180.92,130.16,181,130.85Z" transform="translate(-22.99 -35.87)"/><path class="cls-10" d="M181,124.94c.06.7-2.07,1.63-3.66,2-1.91.42-4.38.3-4.49-.43s2-2,4.1-2.39C178.81,123.8,181,124.25,181,124.94Z" transform="translate(-22.99 -35.87)"/><path class="cls-10" d="M202.77,145.75" transform="translate(-22.99 -35.87)"/><path class="cls-10" d="M181.73,146.54c-.13.69-2.37.69-4,.35-1.91-.39-4.21-1.53-4.13-2.27s2.44-1.09,4.48-.55C179.93,144.55,181.85,145.86,181.73,146.54Z" transform="translate(-22.99 -35.87)"/><path class="cls-10" d="M195.63,141c-.12.7-2.36.71-4,.39-1.92-.38-4.22-1.5-4.14-2.24s2.43-1.11,4.47-.59C193.83,139.06,195.75,140.35,195.63,141Z" transform="translate(-22.99 -35.87)"/><path class="cls-10" d="M195.63,132c0,.71-2.24,1.18-3.86,1.19-1.93,0-4.35-.62-4.37-1.36s2.27-1.6,4.35-1.5C193.61,130.4,195.66,131.28,195.63,132Z" transform="translate(-22.99 -35.87)"/><path class="cls-10" d="M194.23,123.75c0,.71-2.21,1.28-3.83,1.36-1.93.09-4.37-.43-4.4-1.18s2.22-1.69,4.3-1.68C192.16,122.26,194.24,123.05,194.23,123.75Z" transform="translate(-22.99 -35.87)"/><path class="cls-10" d="M194.8,150.7c-.17.68-2.4.4-4-.13-1.87-.63-4.08-2-3.94-2.77s2.51-.79,4.5,0C193.17,148.5,195,150,194.8,150.7Z" transform="translate(-22.99 -35.87)"/><path class="cls-10" d="M207.77,147.09c-.24.64-2.42,0-3.92-.8-1.79-.94-3.84-2.71-3.62-3.41s2.57-.36,4.45.76C206.38,144.64,208,146.47,207.77,147.09Z" transform="translate(-22.99 -35.87)"/><path class="cls-10" d="M210.21,135.64c-.21.66-2.42.2-4-.45-1.83-.78-4-2.37-3.79-3.09s2.54-.58,4.49.37C208.69,133.31,210.41,135,210.21,135.64Z" transform="translate(-22.99 -35.87)"/><path class="cls-10" d="M210.38,126.35c-.14.69-2.38.59-4,.19-1.9-.47-4.17-1.7-4.07-2.44s2.47-1,4.49-.37C208.64,124.29,210.52,125.67,210.38,126.35Z" transform="translate(-22.99 -35.87)"/><path class="cls-10" d="M206.3,157.71c-.3.59-2.41-.4-3.82-1.42-1.68-1.22-3.54-3.3-3.26-4s2.59,0,4.35,1.46C205.15,155.05,206.59,157.12,206.3,157.71Z" transform="translate(-22.99 -35.87)"/><path class="cls-10" d="M222,156.12c-.31.59-2.4-.44-3.8-1.48-1.68-1.25-3.51-3.37-3.22-4s2.58.1,4.33,1.54C220.84,153.45,222.26,155.55,222,156.12Z" transform="translate(-22.99 -35.87)"/><path class="cls-10" d="M226.18,141.43c-.22.65-2.43.14-4-.54-1.83-.82-3.94-2.46-3.76-3.17s2.55-.53,4.48.46C224.68,139.07,226.39,140.78,226.18,141.43Z" transform="translate(-22.99 -35.87)"/><path class="cls-10" d="M228.65,133.09c-.22.65-2.42.09-3.94-.62-1.82-.86-3.91-2.53-3.72-3.24s2.56-.48,4.48.55C227.19,130.7,228.87,132.45,228.65,133.09Z" transform="translate(-22.99 -35.87)"/><path class="cls-10" d="M217.85,168.87c-.4.49-2.27-1.11-3.45-2.52-1.42-1.68-2.84-4.26-2.45-4.82s2.5.82,4,2.72C217.22,166,218.24,168.39,217.85,168.87Z" transform="translate(-22.99 -35.87)"/><path class="cls-10" d="M232.88,170.82c-.46.39-2.06-1.63-3-3.29-1.15-2-2.17-4.87-1.7-5.32s2.34,1.4,3.5,3.61C232.69,167.8,233.34,170.45,232.88,170.82Z" transform="translate(-22.99 -35.87)"/><path class="cls-10" d="M238.37,153c-.42.47-2.24-1.21-3.39-2.67-1.37-1.74-2.73-4.38-2.32-4.92s2.48.93,3.89,2.88C237.82,150,238.77,152.51,238.37,153Z" transform="translate(-22.99 -35.87)"/><path class="cls-10" d="M242,143.09c-.34.56-2.36-.67-3.7-1.85-1.59-1.4-3.3-3.69-3-4.31s2.57.35,4.23,1.95C241,140.31,242.31,142.54,242,143.09Z" transform="translate(-22.99 -35.87)"/><path class="cls-10" d="M227.89,181.73c-.47.39-2.06-1.63-3-3.3-1.15-2-2.17-4.86-1.71-5.32s2.34,1.41,3.5,3.62C227.7,178.71,228.35,181.35,227.89,181.73Z" transform="translate(-22.99 -35.87)"/><path class="cls-10" d="M247.63,165.22c-.41.47-2.23-1.2-3.38-2.66-1.38-1.75-2.73-4.39-2.33-4.93s2.49.93,3.9,2.89C247.08,162.27,248,164.76,247.63,165.22Z" transform="translate(-22.99 -35.87)"/><path class="cls-10" d="M253.51,155.9c-.42.47-2.24-1.2-3.39-2.66-1.37-1.75-2.73-4.39-2.32-4.93s2.48.93,3.89,2.88C253,153,253.91,155.44,253.51,155.9Z" transform="translate(-22.99 -35.87)"/><path class="cls-10" d="M263.38,170.44c-.49.35-2-1.79-2.86-3.53-1-2.08-1.93-5-1.44-5.44s2.27,1.58,3.32,3.88C263.34,167.41,263.85,170.1,263.38,170.44Z" transform="translate(-22.99 -35.87)"/><path class="cls-10" d="M241,185.2c-.52.27-1.78-2.1-2.47-4-.83-2.24-1.4-5.32-.88-5.64s2.09,1.95,2.9,4.4C241.25,182.19,241.48,185,241,185.2Z" transform="translate(-22.99 -35.87)"/><path class="cls-10" d="M255.51,182.4c-.53.2-1.62-2.3-2.17-4.25-.67-2.33-1-5.45-.47-5.72s1.94,2.19,2.56,4.73C256,179.43,256,182.21,255.51,182.4Z" transform="translate(-22.99 -35.87)"/><path class="cls-10" d="M270.37,185.38c-.53.2-1.62-2.31-2.18-4.25-.66-2.33-1-5.46-.46-5.72s1.94,2.19,2.56,4.72C270.85,182.41,270.89,185.18,270.37,185.38Z" transform="translate(-22.99 -35.87)"/><path class="cls-10" d="M235.86,200c-.56.23-1.75-2.38-2.37-4.41-.74-2.44-1.17-5.72-.6-6s2.09,2.25,2.79,4.9C236.32,196.89,236.41,199.82,235.86,200Z" transform="translate(-22.99 -35.87)"/><path class="cls-10" d="M247.08,201.6c-.54.19-1.59-2.35-2.11-4.31-.62-2.34-.92-5.48-.37-5.73s1.9,2.24,2.48,4.79C247.61,198.64,247.6,201.42,247.08,201.6Z" transform="translate(-22.99 -35.87)"/><path class="cls-10" d="M258.54,197.66c-.56.08-1.27-2.64-1.53-4.68-.32-2.45-.22-5.6.35-5.74s1.6,2.61,1.85,5.25C259.44,194.85,259.08,197.59,258.54,197.66Z" transform="translate(-22.99 -35.87)"/><path class="cls-10" d="M273.81,202.06c-.55,0-1.07-2.79-1.19-4.85-.14-2.47.19-5.6.77-5.67s1.4,2.78,1.46,5.44C274.91,199.37,274.36,202.05,273.81,202.06Z" transform="translate(-22.99 -35.87)"/></g></svg>