<svg xmlns="http://www.w3.org/2000/svg" viewBox="0 0 1280 698"><defs><style>.cls-1{fill:#0f325a;}.cls-2{fill:#29abe2;}.cls-2,.cls-3{opacity:0.3;}.cls-3,.cls-9{fill:#d4145a;}.cls-4{fill:#8d2b06;}.cls-5{fill:#eec49c;}.cls-6{fill:#fbb03b;}.cls-7{fill:#fff;}.cls-8{fill:none;}.cls-20,.cls-8{stroke:#000;stroke-miterlimit:10;}.cls-10{fill:aqua;}.cls-11{fill:#957055;}.cls-12{fill:lime;}.cls-13{fill:gray;}.cls-14{fill:#373246;}.cls-15{fill:#7f6666;}.cls-16{fill:#603813;}.cls-17{fill:#e6e6e6;}.cls-18{fill:#499758;}.cls-19{fill:#c33e03;}.cls-21{fill:#581003;}.cls-22{fill:#1f0b02;}.cls-23{fill:#21959a;}.cls-24{fill:#2effd8;}.cls-25{fill:#621f02;}.cls-26{fill:#4d4d4d;}.cls-27{fill:#69ffcf;opacity:0.6;}</style></defs><title>Students</title><g id="Background"><rect class="cls-1" width="1280" height="698"/><ellipse class="cls-2" cx="624.01" cy="427.62" rx="110.56" ry="94.85"/><polygon class="cls-3" points="673.04 525.38 744.39 587.31 926.15 540.91 989.45 611.68 940.58 520.81 761.67 562.29 674.33 504.47 673.04 525.38"/></g><g id="Girl_Right" data-name="Girl Right"><path class="cls-4" d="M947.13,283.15A104.92,104.92,0,0,0,926,288.9a94.59,94.59,0,0,0-13.42,6.71,87.93,87.93,0,0,0-19.17,24.91c-12.2,23.9-14.08,56.55-2.88,84.31,7.72,19.13,25.2,43.35,22.15,54.31-.42,1.5-1.59,5.71-4.89,7-2.19.85-4.48.09-7.67-1a32.9,32.9,0,0,1-7.67-3.83c-3.63-2.43-6.91-4.62-8.63-8.63-.52-1.21-.6-1.9-1-1.91-1.14,0-3.77,7.45-.95,13.41a12.15,12.15,0,0,0,1.91,2.87c10.53,12,19.18,16.29,19.18,16.29s9.89,5,29.25,5.73a2.55,2.55,0,0,0,.91-.14l58.86-21.48a2.38,2.38,0,0,0,1.45-1.49c6.84-20.9,13-36,15-58.31,3.17-36.6,12.88-35.27,11.5-63.23-.76-15.4-1.39-28.31-10.54-40.24C992.49,282.14,960.05,281.33,947.13,283.15Z" transform="translate(0.5 -0.5)"/><path class="cls-5" d="M949.36,433.05l-69.51,57.39,73.59,83.49q-.66-13.81-1.33-27.63l-42.48-56.54,39.82-26.3" transform="translate(0.5 -0.5)"/><path class="cls-6" d="M932.3,698c4.5-21.76,8.37-45,11.27-69.46a824.18,824.18,0,0,0-.16-193.9,287.68,287.68,0,0,1,41.08-10.94,281.82,281.82,0,0,1,38.37-4.54A962.27,962.27,0,0,1,1089.59,698H932.3Z" transform="translate(0.5 -0.5)"/><polygon class="cls-5" points="965.43 406.39 973.31 428.03 992.91 435.63 1001.6 423.93 986.04 396.65 965.43 406.39"/><ellipse class="cls-5" cx="954.8" cy="357.4" rx="46.94" ry="54.97" transform="translate(-64.09 341.73) rotate(-19.67)"/><path class="cls-7" d="M946.39,389.59c1.17-3.82,8.8-3.5,17.22-7.58,7.89-3.82,11.77-9.22,15.95-7.77,1.17.4,1.71,1.06,1.7,1.22a19.71,19.71,0,0,1-9.53,14.75,33.42,33.42,0,0,1-20,3,30.59,30.59,0,0,1-5.26-1.41C945.54,391.45,946.3,389.9,946.39,389.59Z" transform="translate(0.5 -0.5)"/><path class="cls-8" d="M978.39,335.17a21.75,21.75,0,0,0-17,4.75" transform="translate(0.5 -0.5)"/><path class="cls-8" d="M944.49,347.53a22.28,22.28,0,0,0-15.36,9" transform="translate(0.5 -0.5)"/><path class="cls-5" d="M993,330.08a8.51,8.51,0,0,1,5.24-.76c6.64,1.33,11.37,12.29,8.78,20.64a16.22,16.22,0,0,1-4.43,7" transform="translate(0.5 -0.5)"/><g id="Girl_Left" data-name="Girl Left"><g id="Body"><path class="cls-9" d="M160.48,698.12A568.41,568.41,0,0,1,175.67,569l123.81,3.64a500.43,500.43,0,0,1,9.95,69.27,506.13,506.13,0,0,1,1,55.38" transform="translate(0.5 -0.5)"/><path class="cls-10" d="M306,583.91c-3.86-11.42-7.38-23.49-10.36-36.18a383.38,383.38,0,0,1-9.41-112.17c-6.51-1-11.85-1.67-15.57-2.05-4.14-.43-6.47-.66-10.17-1-10.89-1.07-15.81-1.85-21-2.42a200.88,200.88,0,0,0-27.62-1c-15,25.14-30.5,58.33-38.61,98.42a287.65,287.65,0,0,0-5.65,51.39,430.28,430.28,0,0,0,65.91,8A436,436,0,0,0,306,583.91Z" transform="translate(0.5 -0.5)"/><polyline class="cls-11" points="197.86 464.88 111 404.75 141.56 314 158.88 316.18 138.57 389.74 208.07 428.6"/><path class="cls-10" d="M213.39,430.84q-4.81,22.43-9.64,44.84l-56.61-36.09,21.06-42.32Z" transform="translate(0.5 -0.5)"/><path class="cls-12" d="M221.15,428.92l7,.9" transform="translate(0.5 -0.5)"/><polyline class="cls-11" points="280.18 474 385 460.77 399.8 366.16 383.42 360.09 367.47 434.73 287.88 437.09"/><path class="cls-10" d="M284.22,437q-6.8,22.57-13.6,45.16l68.05-4.22,2.22-48.59Z" transform="translate(0.5 -0.5)"/></g><g id="Neck"><path class="cls-11" d="M263,413.08l-7,23L241.41,432l-15.07,1.35L241,404.08Z" transform="translate(0.5 -0.5)"/></g><path class="cls-13" d="M232.39,436.49c.25.28-4.61,4.9-7.42,7.45a136.58,136.58,0,0,1-11.92,9.68c.06-2.76.23-6.75.69-11.6a27.53,27.53,0,0,1,.54-4.26c.14,0,.23,2.27-.05,12.89C228.88,438.61,232.2,436.27,232.39,436.49Z" transform="translate(0.5 -0.5)"/><path class="cls-9" d="M241.41,432l-22.86,6.79,15.6,14.76-21.1,50.06,19.27,12.83,23.85-9-15.6-53.27,20.6-15.78Z" transform="translate(0.5 -0.5)"/><path class="cls-7" d="M213.64,452.07q.44-11.56.86-23.14a103.46,103.46,0,0,1,11.58.45,101,101,0,0,1,13.44,2.21" transform="translate(0.5 -0.5)"/><path class="cls-13" d="M248.92,439.35q-.3.25,15.43,18.44.57-15,.33-15t-1.06,11.95Q249.19,439.11,248.92,439.35Z" transform="translate(0.5 -0.5)"/><path class="cls-7" d="M264.47,456.77l.87-22.17-25.82-2.78" transform="translate(0.5 -0.5)"/><g id="Hair_Bun" data-name="Hair Bun"><path class="cls-14" d="M325.54,344.58c-1.73,8.61-2.6,12.91-5,17-7.7,13.1-25.78,18.56-39.5,18-26-1.07-51.17-24.4-50.5-46.5.31-10.49,6.4-19.3,10-24.5,4.67-6.77,11.14-16.12,22-19,2.77-.74,7.91-1.6,36,10,24.22,10,26.65,13.22,28,16C330,322.61,328.36,330.58,325.54,344.58Z" transform="translate(0.5 -0.5)"/><path class="cls-14" d="M257.54,284.58c-2.46,3.81,3.93-13,8-11,.94.47-2.56,8.07-1,9s6.28-7,11-6a10.81,10.81,0,0,0,5.93.28,8.13,8.13,0,0,1,.79-.26c2.67-.62,4,.86,7.29,0,2.26-.59,2.44-1.47,4.57-1.78a11,11,0,0,1,5.47.89c5.93,2.62,13-.79,18,3.87,2.56,2.4,2.64,5.8,5,6a5.39,5.39,0,0,0,3-1c2.06-1.29,2.66-3.15,3-3s-.38,3.14-1,5c-.69,2.05-1,2.38-1,2.75a1.86,1.86,0,0,0,0,.25c.12.87,5.59,3,8,6,1.29,1.62,2.41,4.39,2,6a10.83,10.83,0,0,0-.38,3.57.49.49,0,0,0,0,.14c.05.44.38,1.39,2.65,3.34.94.8,1.38,1.65,2.73,6.22,2.21,7.47,2.25,8.63,2.68,9.94.13.37.24.63.31.79,1.31,3.2,1.44,3.92,2,5s2,3.79,4,4,3.69-2.28,4-2-.73,2.94-3,4c-3.05,1.42-6.08-1.12-7,0s1.74,3.44,2.47,8.26c.36,2.41-.23,2.32,0,4.71.56,5.57,3.75,6.65,4.51,12,.51,3.63-.27,6.92-1,7s-1.44-4-3-4c-1,0-1.7,1.43-2,2-1.17,2.24-.18,3.42-1,6s-2.06,2.49-2,4c.07,1.87,2,2.22,4,5,2.18,3.07,2.65,6.64,2,7s-1.83-2.11-4-2a2.78,2.78,0,0,0-2,1,2.58,2.58,0,0,0,0,3c1.41,1.61,5.66-.68,6,0,.46.93-6.71,6.81-12,9a6.7,6.7,0,0,0-3,2c-1.13,1.42-.77,2.44-2,4s-2.86,2.17-3,2,.91-.82,1-2a2.62,2.62,0,0,0-1-2c-.75-.6-2.36-.64-4,0s-1.53,1.37-3,2a7.19,7.19,0,0,1-5,0,9,9,0,0,1-4-3c-1.16-1.36-1.1-1.91-2-3a9.44,9.44,0,0,0-5-3" transform="translate(0.5 -0.5)"/></g><g id="Head"><ellipse class="cls-11" cx="271.04" cy="361.08" rx="57.12" ry="48.76" transform="translate(-151.72 517.71) rotate(-73.47)"/><path class="cls-7" d="M281.39,394c-1.43-3.91-9.36-3.16-18.35-6.94-8.43-3.55-12.77-9-17.05-7.22-1.2.49-1.72,1.21-1.7,1.37A20.59,20.59,0,0,0,255,396.08a34.93,34.93,0,0,0,21,2,31.57,31.57,0,0,0,5.39-1.76C282.39,395.92,281.51,394.34,281.39,394Z" transform="translate(0.5 -0.5)"/><path class="cls-8" d="M245,339.08a22.7,22.7,0,0,1,18,4" transform="translate(0.5 -0.5)"/><path class="cls-8" d="M281,350.08a23.24,23.24,0,0,1,16.5,8.5" transform="translate(0.5 -0.5)"/></g><g id="Ears"><path class="cls-11" d="M229.54,334.58a8.82,8.82,0,0,0-5.5-.5c-6.84,1.75-11.16,13.44-8,22a16.92,16.92,0,0,0,5,7" transform="translate(0.5 -0.5)"/><path class="cls-15" d="M220.42,341.35l4.1-.4-3.05,10.16-.44,3q-.34-2.83-.67-5.66l1.44-2.82Z" transform="translate(0.5 -0.5)"/><path class="cls-11" d="M320.48,363.63a9.29,9.29,0,0,1,4.09,2.87c4.44,5.64,1.31,17.47-6.09,22.61a17,17,0,0,1-8.11,2.85" transform="translate(0.5 -0.5)"/><path class="cls-15" d="M323.29,374.44l-3.19-2.62L317,382l-1.28,2.71,3.7-4.33.38-3.14Z" transform="translate(0.5 -0.5)"/></g><g id="Nose"><path class="cls-15" d="M273.14,356.39,275,369.06a1.61,1.61,0,0,1-1.89,1.81,52.83,52.83,0,0,0-5.53-1.29c-1.91-.34-3.69-.55-5.32-.68" transform="translate(0.5 -0.5)"/><path class="cls-11" d="M272.21,355.45,274,368.63a1.25,1.25,0,0,1-1.48,1.39,22.61,22.61,0,0,0-3.95-1.44,23.49,23.49,0,0,0-7.37-.74" transform="translate(0.5 -0.5)"/></g><g id="Hair"><path class="cls-14" d="M230.54,332.58l8.83.61a1.25,1.25,0,0,0,1.2-1.82l-4-7.79-5,7" transform="translate(0.5 -0.5)"/><path class="cls-14" d="M237.76,322.4l8.5,2.48a1.25,1.25,0,0,0,1.56-1.52l-2.28-8.48-6.37,5.78" transform="translate(0.5 -0.5)"/><path class="cls-14" d="M246.35,314.09l7.59,4.55a1.25,1.25,0,0,0,1.9-1.08c0-2.92-.05-5.85-.07-8.77l-7.63,4" transform="translate(0.5 -0.5)"/><path class="cls-14" d="M257.38,308.11,264,317c.73,1,1.9.61,2.09-.66l1.71-11.36-8.35,2.16" transform="translate(0.5 -0.5)"/><path class="cls-14" d="M268.89,305.13,273,316.72c.45,1.28,1.68,1.18,2.19-.18q2.3-6.09,4.58-12.19l-8.63.19" transform="translate(0.5 -0.5)"/><path class="cls-14" d="M280.92,304.69l1.13,11.88c.13,1.31,1.34,1.54,2.16.4l7.4-10.18-8.38-2.07" transform="translate(0.5 -0.5)"/><path class="cls-14" d="M292.12,308.17l-2.4,12.52c-.26,1.37.87,1.88,2,.9L302,312.78l-7.63-4" transform="translate(0.5 -0.5)"/><path class="cls-14" d="M301.62,313.83l-4.29,10.39c-.47,1.14.46,1.95,1.66,1.43L309.78,321l-6.21-6" transform="translate(0.5 -0.5)"/><path class="cls-14" d="M310.2,321l-4.65,7.54a1.24,1.24,0,0,0,1.05,1.9l8.78.06-3.87-7.68" transform="translate(0.5 -0.5)"/><path class="cls-14" d="M315.63,331l-5.29,7.11a1.25,1.25,0,0,0,.89,2l8.74.81-3.19-8" transform="translate(0.5 -0.5)"/><path class="cls-14" d="M318.92,341.33l-7,4.67a1,1,0,0,0,.32,1.82l8.19,2.58c-.3-2.42-.61-4.83-.92-7.25" transform="translate(0.5 -0.5)"/><path class="cls-14" d="M320.56,351.75,313,356A1.16,1.16,0,0,0,313,358l7.74,4q.08-4.07.13-8.13" transform="translate(0.5 -0.5)"/></g><path class="cls-7" d="M243.54,444.58" transform="translate(0.5 -0.5)"/><path class="cls-7" d="M244,428.12" transform="translate(0.5 -0.5)"/><path class="cls-16" d="M986.51,423l-19.39,12.1,18.18,9.66-6.74,51.61,21.08,6.94L1019.4,489l-28-45.22,15-19.83Z" transform="translate(0.5 -0.5)"/><path class="cls-7" d="M966,448.63l-5.1-21.58a96.8,96.8,0,0,1,23.79-3.92" transform="translate(0.5 -0.5)"/><path class="cls-13" d="M995.32,427.9q-.21.3,19,13.09-3.31-14-3.53-14t2.07,11.31Q995.51,427.61,995.32,427.9Z" transform="translate(0.5 -0.5)"/><path class="cls-7" d="M1014.13,440q-2.43-10.33-4.85-20.69l-24.57,4" transform="translate(0.5 -0.5)"/></g><path class="cls-5" d="M907.43,362.5a9,9,0,0,0-3.78,3c-4,5.62-.35,16.78,7,21.31a16.24,16.24,0,0,0,7.91,2.33" transform="translate(0.5 -0.5)"/><path class="cls-15" d="M952.38,353.17l-1.1,12.21a1.55,1.55,0,0,0,1.9,1.64,52.06,52.06,0,0,1,5.23-1.52c1.81-.42,3.5-.72,5.05-.92" transform="translate(0.5 -0.5)"/><path class="cls-5" d="M953.22,352.21l-1,12.7a1.19,1.19,0,0,0,1.48,1.26,22.34,22.34,0,0,1,10.73-2.66" transform="translate(0.5 -0.5)"/><polyline class="cls-5" points="1035.79 451.15 1107.83 380.01 1063.92 299.44 1047.92 304.37 1079.31 370.42 1020.13 418.61"/><path class="cls-7" d="M1018.48,419.39l16.81,32.27,42.56-31.93-22.15-34.91Z" transform="translate(0.5 -0.5)"/><path class="cls-14" d="M936.59,305.19" transform="translate(0.5 -0.5)"/><path class="cls-4" d="M907.27,360.54a77.5,77.5,0,0,0,23.31-52L985,319.38l-23.58-30.09-43,11.11-21.09,39.28Z" transform="translate(0.5 -0.5)"/><path class="cls-7" d="M943.41,434.64q2,21.94,4,43.89l-23.59,22.38-34.74-36.74Z" transform="translate(0.5 -0.5)"/><path class="cls-7" d="M949.2,431.71" transform="translate(0.5 -0.5)"/></g><g id="Boy_Middle" data-name="Boy Middle"><path class="cls-17" d="M692,564.33c-2.27-25.66-14.13-138.34-17.8-168-17.23.6-35.28.9-54.08.8-12.64-.07-51.51-1.26-58.62-1.61q-8.12,45.76-14.5,94.69-4.75,36.84-8,72.12c23.32,2.4,49.47,4.11,78,4.43C644.3,567.05,669.43,566,692,564.33Z" transform="translate(0.5 -0.5)"/><polygon class="cls-18" points="619.5 379.5 595.5 393.5 612.5 416.5 589.5 494.5 610.5 514.5 636.5 500.5 619.5 417.5 641.95 392.9 619.5 379.5"/><path class="cls-19" d="M595,397q.81-11.53,1.61-23.06l43,1.56L641,398" transform="translate(0.5 -0.5)"/><g id="Face"><path class="cls-19" d="M670,321c0,4.33,0,8.67,0,13,0,2.67,0,5.33,0,8,0,6.61.1,12.23-1,16a31.18,31.18,0,0,1-2,5,9.33,9.33,0,0,1-.83,1.47c-1.69,2.42-5.39,4.8-18.17,10.53,0,0-18.85,8.44-29,8-1.1-.05-2.17-.19-2.17-.19h0c-2.51-.4-5.09-1.49-12.33-4.31-20.65-8.05-26.42-9.87-32-17-4.24-5.41-4.56-10.3-5-34-.87-47.11,0-50.09,3-53a11.78,11.78,0,0,1,1.67-1.35C577.72,269.53,614,271,614,271c4,.16,4.6.06,7.29,0,3-.07,5.79-.05,8.71,0,.93,0,.22,0,23,0h7a37.86,37.86,0,0,1,5,0,24.09,24.09,0,0,1,5,1Z" transform="translate(0.5 -0.5)"/><path class="cls-8" d="M589.87,309.65a22.64,22.64,0,0,1,18.32-2.13" transform="translate(0.5 -0.5)"/><path class="cls-8" d="M627.49,308.22a23.46,23.46,0,0,1,10.43-.45,23.21,23.21,0,0,1,7.94,3.06" transform="translate(0.5 -0.5)"/><path class="cls-20" d="M610.37,301.92l-26.83,1.58-.3-3.33L609.87,297a1.26,1.26,0,0,1,1.39,1.09l.28,2.41A1.25,1.25,0,0,1,610.37,301.92Z" transform="translate(0.5 -0.5)"/><path class="cls-20" d="M627.45,302.15l26.86,1.09.24-3.33-26.68-2.66a1.25,1.25,0,0,0-1.37,1.12l-.24,2.41A1.24,1.24,0,0,0,627.45,302.15Z" transform="translate(0.5 -0.5)"/></g><path class="cls-13" d="M610.52,403.73q.3.28-18.08,17.62.36-15.06.62-15.05t.38,12Q610.24,403.48,610.52,403.73Z" transform="translate(0.5 -0.5)"/><path class="cls-7" d="M638.39,345.85c-2.68-3.23-10.31-1.31-20.39-1.85-8.24-.44-14.39-2.33-17.72.73-.89.82-1.3,1.57-1.12,1.87a20.59,20.59,0,0,0,15.19,10.25,34.89,34.89,0,0,0,20.41-5.35,32.35,32.35,0,0,0,4.46-3.5C640,347.3,638.63,346.14,638.39,345.85Z" transform="translate(0.5 -0.5)"/><g id="Ears-2" data-name="Ears"><path class="cls-19" d="M569.92,296.52a25.36,25.36,0,0,0-10.33,1.54c-11.74,4.68-14.34,20-4.64,28.71,3.81,3.45,8.85,5.26,12.37,6.23" transform="translate(0.5 -0.5)"/><path class="cls-15" d="M554.61,307.27l8.18-1-3.71,12.58-.19,3.62q-1.35-3.36-2.69-6.72l2.22-3.56Z" transform="translate(0.5 -0.5)"/><path class="cls-19" d="M668.53,295.9a19.77,19.77,0,0,1,8.88,2.25c9.76,5.45,10.23,20.67.68,28.6A27.4,27.4,0,0,1,666.5,332" transform="translate(0.5 -0.5)"/><path class="cls-15" d="M680.69,307.58,673.63,306l1.77,12.65-.26,3.57,3.16-6.42-1.53-3.67Z" transform="translate(0.5 -0.5)"/></g><path class="cls-15" d="M610,327.17c2.08,1.75,6.46,4.77,12,3.64a15.7,15.7,0,0,0,7-3.64" transform="translate(0.5 -0.5)"/><path class="cls-19" d="M610,327a22.74,22.74,0,0,0,12,2,22.22,22.22,0,0,0,7-2" transform="translate(0.5 -0.5)"/><path class="cls-21" d="M568,260c-1.67,1.2-3,2.24-4,3a8.86,8.86,0,0,0-7,8,7.86,7.86,0,0,1,2-3c.5-.44,1.62-1.28,2-1,.7.51-2.4,3.81-3,8-1,7,6,11.26,4,15-1.44,2.71-6.08,2.28-6,3,.1,1,8.41,2,10-1a3.47,3.47,0,0,0,0-3c-.4,0-.64,13.73,1,14,2,.33,2.79-20.31,13.09-24,2.63-.94,7.78-1.34,15.91,3a57.13,57.13,0,0,0,18,6,58.14,58.14,0,0,0,29-3l14.44-6.39a5,5,0,0,1,.85.2c2.6.88,3.9,3.79,4.71,6.19a42.34,42.34,0,0,1,2,19c-.33,1.88-1.28,6.4,0,7,.29.14.52,0,2,0s1.73.2,2,0c.68-.49.22-1.87,0-5-.1-1.33-.09-2.38-.1-2.64-.14-2.47,2.27-6.08,3.1-7.36a70.64,70.64,0,0,0,5-9c1.79-4.05,3.09-7,2-10a9.51,9.51,0,0,0-5-5,22.79,22.79,0,0,1,8-2c5.46-.32,8.75,1.57,9,1,.35-.82-5.55-6.51-12-5a11,11,0,0,0-6,4,13.4,13.4,0,0,0,2-7c-.06-5.68-4.09-10.35-5-10-.43.16-.06,1.39,0,7,0,1.23,0,2.26,0,3l-8-9a45.77,45.77,0,0,0-11-4,46.39,46.39,0,0,0-20,0c-3.62-2.21-17.19-9.91-31-5a27.94,27.94,0,0,0-6,3,53.17,53.17,0,0,0-15,5A90.6,90.6,0,0,0,568,260Z" transform="translate(0.5 -0.5)"/><path class="cls-22" d="M574,267l15-4c-3.6,3.07-7.29,6.4-11,10-1.73,1.68-3.39,3.34-5,5a15.28,15.28,0,0,1,8-10l-7,2-7,2a9.93,9.93,0,0,1,4-4A9.79,9.79,0,0,1,574,267Z" transform="translate(0.5 -0.5)"/><path class="cls-22" d="M615.88,255.44a27.86,27.86,0,0,1,8.87,1,27.55,27.55,0,0,1,7.41,3.27,24.54,24.54,0,0,0-17.26.57,22.17,22.17,0,0,0-6.9,4.8,27.08,27.08,0,0,1,21.42.54,40.1,40.1,0,0,0-12.55,5.23,39.49,39.49,0,0,0-8.87,7.69,66.7,66.7,0,0,1,13.8-2.89c6.58-.66,10.31,0,16.75,0a108.36,108.36,0,0,0,20.1-1.76q4.56,8.56,9.13,17.14a15.71,15.71,0,0,1,1.83-5.32,23,23,0,0,1,6.39-7.09c-2.83-5.1-4.89-8.34-6.39-10-.37-.41-1.85-2-.92-3,.35-.34.75-.3.92-.59.39-.7-1.51-1.64-4.57-3.55-1.22-.76-2.17-1.39-2.74-1.77-7.63-2.86-12.46-3.22-15.53-3-3.63.32-7.47-.13-11,.59a3.54,3.54,0,0,1-1.83,0c-.41-.14-.48-.33-.91-.59a4.6,4.6,0,0,0-1.83-.59c-1.69-.29-3.42-2.78-4.52-3.57C625.38,251.61,622.55,251.47,615.88,255.44Z" transform="translate(0.5 -0.5)"/><path class="cls-21" d="M652,260" transform="translate(0.5 -0.5)"/><path class="cls-7" d="M593,420l1.27-24H619" transform="translate(0.5 -0.5)"/><path class="cls-13" d="M627,404q-.27.28,17,17-.76-15-1-15c-.14,0-.14,4,0,12Q627.25,403.74,627,404Z" transform="translate(0.5 -0.5)"/><path class="cls-13" d="M590,418" transform="translate(0.5 -0.5)"/><path class="cls-7" d="M644,420l-1.32-24L618,396" transform="translate(0.5 -0.5)"/><path class="cls-23" d="M498,380a93.92,93.92,0,0,1,20-23,92.51,92.51,0,0,1,13-9l3,4" transform="translate(0.5 -0.5)"/><path class="cls-19" d="M563,396,430,231l-16,12L552,448" transform="translate(0.5 -0.5)"/><path class="cls-17" d="M565.5,398.54Q559.75,424.27,554,450l-56-70,33.46-31.3Z" transform="translate(0.5 -0.5)"/><path class="cls-24" d="M500,443" transform="translate(0.5 -0.5)"/><path class="cls-23" d="M737.92,385.37a93.93,93.93,0,0,0-18.45-24.26,92.29,92.29,0,0,0-12.38-9.84l-3.25,3.8" transform="translate(0.5 -0.5)"/><path class="cls-19" d="M672,397.06,815.57,241.17l15.18,13L679.56,449.67" transform="translate(0.5 -0.5)"/><path class="cls-19" d="M416.57,244.74,409,238.45a38.2,38.2,0,0,1-8.27-2.19c-.63-.28-1.35-.64-1.35-.64a41.33,41.33,0,0,1-3.66-2.06l-.25-.15c-3.32-2.1-8-3.08-10.71-3.56h0c-6.23-1.23-10.55-2.12-10.81-3.79a1.38,1.38,0,0,1,.34-1.05c1-1.31,3.24-.77,11.16.36,2.1.3,4.22.43,6.31.8,1.2.21,2.49.47,2.88-.1s-.12-1.34-.44-1.85L370,211.59c-.12-1.23-.11-2.91.93-3.6,1.43-1,4.81.87,11.5,4.59,4.55,2.54,11.57,6.45,12.79,5.1a11.43,11.43,0,0,0,.92-2h0l-.29.66a145,145,0,0,0-14.39-12.91c-2.92-2.3-5.78-4.37-8.54-6.23a3.3,3.3,0,0,1,.25-3.07,3.22,3.22,0,0,1,3-1.3,136.21,136.21,0,0,1,11.58,8.2c6.29,5,13.17,11.35,13.17,11.35l3.76-.82L390,190.89a3.53,3.53,0,0,1,1.16-4.21c1.54-.86,4.36.06,5.42,2.64,5.86,9,9.76,15.28,11,17.9a8.56,8.56,0,0,0,2.41,3.05,8,8,0,0,0,3.53,1.56c1.87.3,4.9.07,5.52-1.47.4-1-.59-1.64-1.68-4.69a14.23,14.23,0,0,1-1.09-5c0-1.81,0-4.31,1.88-5.8a6.47,6.47,0,0,1,5-.93q.63,5.7,1.28,11.39l6.39,13.78.61,7.63a48.7,48.7,0,0,1-2.1,5.15,47.43,47.43,0,0,1-5.4,8.66" transform="translate(0.5 -0.5)"/><path class="cls-17" d="M669.35,399.43q4,26.06,8.09,52.11l60.48-66.17-31.33-33.43Z" transform="translate(0.5 -0.5)"/><path class="cls-24" d="M731.78,448.1" transform="translate(0.5 -0.5)"/><path class="cls-18" d="M539,554" transform="translate(0.5 -0.5)"/><path class="cls-25" d="M399.68,223.5a6.67,6.67,0,0,1-1.82.46c-.1-.14,5.62-1.93,11.55-5a59,59,0,0,0,5.84-3.42c-.53,1.86-1.05,3.73-1.55,5.64-.46,1.71-.89,3.41-1.3,5.08a20.82,20.82,0,0,0-5.71-2.22A24.32,24.32,0,0,0,399.68,223.5Z" transform="translate(0.5 -0.5)"/><path class="cls-25" d="M371.47,163.31" transform="translate(0.5 -0.5)"/><path class="cls-26" d="M539,561.56,500,698l90.67.5,20.08-36.57,27.92,36.57,99.25-.5L692,563.13" transform="translate(0.5 -0.5)"/><path class="cls-19" d="M829,256.79l6.4-6.86a1.87,1.87,0,0,1,.81-.51,36.15,36.15,0,0,0,7.45-3.09c.58-.36,1.26-.82,1.26-.82,1.59-1.07,2.76-2,3.36-2.5l.22-.19c3-2.51,7.57-4.09,10.16-4.91h0c6-2,10.2-3.46,10.24-5.16a1.44,1.44,0,0,0-.47-1c-1.14-1.17-3.31-.35-11,1.79-2,.57-4.12,1-6.15,1.61-1.17.36-2.41.8-2.87.27s0-1.34.2-1.89l21.45-15a1.89,1.89,0,0,0,.78-1.85,2.85,2.85,0,0,0-1.27-2.23c-1.55-.77-4.66,1.49-10.81,6.05-4.19,3.1-10.65,7.89-12,6.7a11.93,11.93,0,0,1-1.17-1.82h0l.37.61a147.5,147.5,0,0,1,12.6-14.66c2.42-2.47,4.82-4.74,7.16-6.82a1.89,1.89,0,0,0,.63-1.41,3,3,0,0,0-.77-2,3.13,3.13,0,0,0-2.45-1,1.85,1.85,0,0,0-1.13.45,134,134,0,0,0-10,9.27c-4.52,4.64-9.3,10.23-11,12.22a1.89,1.89,0,0,1-1.6.65h0a1.89,1.89,0,0,1-1.51-2.76l10.43-19.63a2.09,2.09,0,0,0,.21-.64,3.45,3.45,0,0,0-1.74-3.69c-1.64-.64-4.32.63-5,3.33-4.64,9.71-7.7,16.4-8.65,19.17a8.38,8.38,0,0,1-2,3.34,8,8,0,0,1-3.3,2c-1.81.54-4.85.7-5.66-.74-.53-.94.37-1.71,1.06-4.87a14.38,14.38,0,0,0,.43-5.09c-.23-1.79-.55-4.27-2.61-5.51a5.37,5.37,0,0,0-3.36-.64,1.9,1.9,0,0,0-1.72,1.91c.06,3.2.12,6.41.17,9.61a1.77,1.77,0,0,1-.08.6q-2.15,6.78-4.28,13.57l.83,9.54c.62,1.15,1.31,2.34,2.11,3.57a46.71,46.71,0,0,0,6.47,7.89" transform="translate(0.5 -0.5)"/><path class="cls-25" d="M843.69,236.28a8.08,8.08,0,0,0,1.58,1c.2-.15-4.52-4.52-9.39-8.38-2.28-1.81-4.25-3.24-5.64-4.22a21.77,21.77,0,0,1,.58,12.07,11.62,11.62,0,0,1,12.87-.48Z" transform="translate(0.5 -0.5)"/><path class="cls-11" d="M139.52,318.3l1.83-8.45a34.14,34.14,0,0,1-1.51-7.32c0-.6,0-1.31,0-1.31,0-1.68.09-3,.15-3.67,0-.14,0-.18,0-.26.31-3.43-.74-7.49-1.41-9.76h0c-1.44-5.35-2.42-9.08-1.26-9.95a1.13,1.13,0,0,1,.91-.16c1.36.24,1.82,2.22,4,8.85.57,1.76,1.29,3.46,1.8,5.24.3,1,.59,2.14,1.18,2.21s1-.63,1.22-1.08l.29-23.89c.88-.59,2.15-1.24,3.07-.72,1.28.74,1.17,4.11.92,10.81-.17,4.56-.44,11.6,1,12a9.64,9.64,0,0,0,1.82,0h0l-.61,0a132.58,132.58,0,0,0,4.24-16.37c.61-3.19,1.08-6.25,1.43-9.15a2.76,2.76,0,0,1,2.4-1,2.71,2.71,0,0,1,2.13,1.83,121.07,121.07,0,0,1-1.76,12.3c-1.34,6.89-3.52,14.8-3.52,14.8l2,2.6,10-19.74a2.92,2.92,0,0,1,3.61-.78c1.23.86,1.62,3.43.08,5.29-4.57,8.16-7.78,13.69-9.26,15.75a7.55,7.55,0,0,0-1.38,3.1,7.18,7.18,0,0,0,.17,3.37c.48,1.57,1.82,3.84,3.21,3.71.91-.08,1-1.11,2.89-3.18a12.3,12.3,0,0,1,3.34-2.83c1.36-.72,3.24-1.72,5.08-.85a5.62,5.62,0,0,1,2.62,3.55l-8.09,5.54-7.94,10.48-5.5,3.51a37.49,37.49,0,0,1-13.26-.34" transform="translate(0.5 -0.5)"/><path class="cls-11" d="M398.67,369.85l3.08-8.08a34.46,34.46,0,0,0,5.25-5.31c.35-.5.74-1.09.74-1.09.93-1.41,1.56-2.55,1.88-3.16l.12-.23c1.61-3,4.71-5.87,6.51-7.41h0c4.13-3.7,7-6.29,6.48-7.65a1.14,1.14,0,0,0-.68-.63c-1.27-.54-2.73.87-8.17,5.24-1.44,1.16-3,2.2-4.37,3.41-.81.69-1.66,1.47-2.19,1.21s-.46-1-.43-1.58l12.79-20.17c-.42-1-1.12-2.22-2.18-2.28-1.47-.08-3.22,2.8-6.67,8.55-2.34,3.92-6,10-7.42,9.49a9.59,9.59,0,0,1-1.5-1h0l.49.37a133,133,0,0,1,5.38-16c1.23-3,2.51-5.83,3.79-8.45a2.75,2.75,0,0,0-1.45-2.17,2.72,2.72,0,0,0-2.79.38,122.41,122.41,0,0,0-5.24,11.26C399.46,331,397,338.82,397,338.82l-3.13,1.06,2.4-22a2.89,2.89,0,0,0-2.6-2.61c-1.5,0-3.22,2-2.95,4.38-.62,9.34-.95,15.73-.83,18.26a7.56,7.56,0,0,1-.54,3.34,7,7,0,0,1-2,2.73c-1.26,1.06-3.62,2.24-4.71,1.37-.72-.56-.24-1.48-.69-4.24a12.27,12.27,0,0,0-1.26-4.2c-.74-1.35-1.77-3.22-3.79-3.49a5.65,5.65,0,0,0-4.13,1.55l3.75,9q.47,6.57.94,13.12l2.69,5.95a38.06,38.06,0,0,0,11.3,7" transform="translate(0.5 -0.5)"/><path class="cls-15" d="M153.47,321.05c-4.24-1.86-5.16-2.54-5-2.78.24-.5,4.86,1.46,9.91.42a14.61,14.61,0,0,0,6.28-3,2.53,2.53,0,0,1,.71,2.33,3.47,3.47,0,0,1-3.39,2.07,6.64,6.64,0,0,1-4,1.87A7.43,7.43,0,0,1,153.47,321.05Z" transform="translate(0.5 -0.5)"/><path class="cls-15" d="M151.66,300.77c-6-.69-7.39-1.3-7.39-1.75,0-.71,3.32-1.64,6.46-1.24a12,12,0,0,1,5.24,2.06q7.11,8.3,6.68,8.71t-7-5.75a28.05,28.05,0,0,1-.87,3.93c-.82,2.69-2.07,5.34-2.4,5.23s.47-2.21.43-5.23A17.91,17.91,0,0,0,151.66,300.77Z" transform="translate(0.5 -0.5)"/><path class="cls-15" d="M401.19,351.22c4.19,4.34,5.52,5.08,5.88,4.8.57-.42-.72-3.63-2.95-5.88a11.87,11.87,0,0,0-4.82-2.91q-10.91-.6-11,0c0,.36,2.91,1.06,8.84,2.08a27.81,27.81,0,0,0-2.59,3.09c-1.64,2.28-3,4.88-2.69,5.08s1.46-1.72,3.89-3.53A18,18,0,0,1,401.19,351.22Z" transform="translate(0.5 -0.5)"/><path class="cls-5" d="M1064.56,301.78l-3.87-7.73a34.36,34.36,0,0,0-.35-7.46c-.13-.6-.3-1.28-.3-1.28-.41-1.64-.83-2.88-1.06-3.52,0-.14-.06-.17-.08-.25-1.16-3.24-1.14-7.44-1.06-9.81h0c.08-5.54.1-9.39-1.24-10a1.16,1.16,0,0,0-.92.08c-1.26.57-1.22,2.6-1.67,9.56-.12,1.85-.39,3.67-.45,5.52,0,1.07,0,2.22-.59,2.43s-1.09-.37-1.45-.74l-6.21-23.07c-1-.36-2.38-.68-3.14.06-1.06,1-.13,4.27,1.78,10.7,1.29,4.37,3.3,11.12,2,11.88a8.74,8.74,0,0,1-1.78.4h0l.59-.11a131.88,131.88,0,0,1-8.16-14.81q-2.07-4.41-3.65-8.5a2.56,2.56,0,0,0-4.19,1.9,120.44,120.44,0,0,0,4.75,11.48c3,6.34,7.08,13.47,7.08,13.47l-1.34,3q-7.28-8.34-14.57-16.66a2.91,2.91,0,0,0-3.69.14c-1,1.14-.71,3.72,1.24,5.14,6.45,6.78,10.93,11.34,12.87,13a7.53,7.53,0,0,1,2.11,2.66,7.18,7.18,0,0,1,.66,3.31c-.07,1.64-.8,4.17-2.18,4.39-.9.15-1.26-.83-3.59-2.36a12.14,12.14,0,0,0-3.94-1.92c-1.5-.37-3.57-.87-5.14.44a5.63,5.63,0,0,0-1.65,4.08l9.2,3.36,10.29,8.19,6.21,2.05a40.06,40.06,0,0,0,4.63-.76,38.62,38.62,0,0,0,8.13-2.86" transform="translate(0.5 -0.5)"/></g><g id="Guides"><circle class="cls-27" cx="932.8" cy="131.22" r="19.04"/><circle class="cls-27" cx="556.5" cy="163.35" r="12.78"/></g></svg>