<svg xmlns="http://www.w3.org/2000/svg" viewBox="0 0 1280 698"><defs><style>.cls-1{fill:#0f325a;}.cls-2{fill:#8d2b06;}.cls-3{fill:#fbb03b;}.cls-4{fill:#eec49c;}.cls-5{fill:#fff;}.cls-6{fill:none;}.cls-18,.cls-6{stroke:#000;stroke-miterlimit:10;}.cls-7{fill:aqua;}.cls-8{fill:#957055;}.cls-9{fill:lime;}.cls-10{fill:gray;}.cls-11{fill:#d4145a;}.cls-12{fill:#373246;}.cls-13{fill:#7f6666;}.cls-14{fill:#603813;}.cls-15{fill:#e6e6e6;}.cls-16{fill:#499758;}.cls-17{fill:#c33e03;}.cls-19{fill:#581003;}.cls-20{fill:#1f0b02;}.cls-21{fill:#21959a;}.cls-22{fill:#2effd8;}.cls-23{fill:#69ffcf;opacity:0.6;}</style></defs><title>Students</title><g id="Background"><rect class="cls-1" width="1280" height="698"/></g><g id="Girl_Right" data-name="Girl Right"><path class="cls-2" d="M950,265a108.9,108.9,0,0,0-22,6,97.44,97.44,0,0,0-14,7,91.7,91.7,0,0,0-20,26c-12.73,24.95-14.68,59-3,88,8,20,26.29,45.25,23.1,56.68-.43,1.57-1.66,6-5.1,7.32-2.29.9-4.68.1-8-1a33.86,33.86,0,0,1-8-4c-3.79-2.53-7.21-4.81-9-9-.54-1.26-.63-2-1-2-1.2,0-3.93,7.78-1,14a12.48,12.48,0,0,0,2,3c11,12.48,20,17,20,17s10.32,5.18,30.51,6a2.53,2.53,0,0,0,1-.15l61.4-22.41a2.53,2.53,0,0,0,1.52-1.56C1005.52,434,1012,418.3,1014,395c3.31-38.21,13.44-36.82,12-66-.79-16.08-1.45-29.55-11-42C997.32,263.94,963.47,263.1,950,265Z" transform="translate(0.5 -0.5)"/><path class="cls-3" d="M937.86,626.11c3.26-16,6.09-32.83,8.32-50.52a684.89,684.89,0,0,0,1.75-155.31,342.16,342.16,0,0,1,78.41-13.19,512.93,512.93,0,0,1,57.94,204.21,356.66,356.66,0,0,1-146.42,14.81Z" transform="translate(0.5 -0.5)"/><polygon class="cls-4" points="969.07 393.65 977.28 416.24 997.73 424.17 1006.79 411.96 990.56 383.49 969.07 393.65"/><ellipse class="cls-4" cx="958" cy="342.5" rx="48.97" ry="57.37" transform="translate(-58.88 340.71) rotate(-19.6)"/><path class="cls-5" d="M949.23,376.09c1.21-4,9.18-3.65,18-7.91,8.23-4,12.27-9.62,16.63-8.11,1.23.42,1.79,1.11,1.77,1.28a20.6,20.6,0,0,1-9.94,15.4,34.91,34.91,0,0,1-20.86,3.11,30.87,30.87,0,0,1-5.48-1.47C948.34,378,949.13,376.42,949.23,376.09Z" transform="translate(0.5 -0.5)"/><path class="cls-6" d="M982.61,319.3a22.61,22.61,0,0,0-17.76,4.95" transform="translate(0.5 -0.5)"/><path class="cls-6" d="M947.24,332.19a23.42,23.42,0,0,0-9.82,3.53,23.12,23.12,0,0,0-6.2,5.84" transform="translate(0.5 -0.5)"/><path class="cls-4" d="M997.85,314a8.75,8.75,0,0,1,5.46-.79c6.92,1.38,11.86,12.82,9.16,21.54a17.06,17.06,0,0,1-4.62,7.26" transform="translate(0.5 -0.5)"/><g id="Girl_Left" data-name="Girl Left"><g id="Body"><path class="cls-7" d="M306.5,637.5c-4.1-15.78-7.83-32.46-11-50a684.66,684.66,0,0,1-10-155c-6.91-1.43-12.58-2.3-16.54-2.83-4.39-.59-6.87-.91-10.8-1.42-11.56-1.48-16.79-2.55-22.32-3.34a163.23,163.23,0,0,0-29.34-1.41,512.75,512.75,0,0,0-47,207,356.72,356.72,0,0,0,147,7Z" transform="translate(0.5 -0.5)"/><polyline class="cls-8" points="193 458 113 389 153 302 170 306 142 377 207 423"/><path class="cls-7" d="M205.67,424.69q-8.67,21.93-17.35,43.85L137.57,423,166,383.53Z" transform="translate(0.5 -0.5)"/><path class="cls-9" d="M221.61,423.34l7,.9" transform="translate(0.5 -0.5)"/></g><g id="Neck"><path class="cls-8" d="M263.5,407.5l-7,23-14.63-4.06-15.07,1.35,14.7-29.29Z" transform="translate(0.5 -0.5)"/></g><path class="cls-10" d="M232.85,430.91c.25.28-4.61,4.9-7.41,7.45A138,138,0,0,1,213.51,448c.06-2.76.23-6.75.69-11.6a25.72,25.72,0,0,1,.55-4.26c.13,0,.22,2.28-.06,12.89C229.34,433,232.67,430.69,232.85,430.91Z" transform="translate(0.5 -0.5)"/><path class="cls-11" d="M241.87,426.44,219,433.23,234.61,448l-21.1,50.06,19.27,12.84,23.85-9L241,448.63l20.59-15.78Z" transform="translate(0.5 -0.5)"/><path class="cls-5" d="M214.1,446.49q.43-11.57.86-23.13a101,101,0,0,1,11.58.44A102.66,102.66,0,0,1,240,426" transform="translate(0.5 -0.5)"/><path class="cls-10" d="M249.38,433.77q-.28.27,15.43,18.44c.38-10,.49-15,.33-15s-.49,4-1.06,11.95Q249.65,433.53,249.38,433.77Z" transform="translate(0.5 -0.5)"/><path class="cls-5" d="M264.93,451.19,265.8,429,240,426.24" transform="translate(0.5 -0.5)"/><g id="Hair_Bun" data-name="Hair Bun"><path class="cls-12" d="M326,339c-1.73,8.61-2.6,12.92-5,17-7.7,13.1-25.78,18.56-39.5,18-26-1.07-51.17-24.4-50.5-46.5.32-10.49,6.4-19.3,10-24.5,4.67-6.76,11.14-16.12,22-19,2.77-.73,7.91-1.6,36,10,24.22,10,26.65,13.22,28,16C330.42,317,328.82,325,326,339Z" transform="translate(0.5 -0.5)"/><path class="cls-12" d="M258,279c-2.46,3.81,3.94-13,8-11,.95.47-2.56,8.07-1,9s6.28-7,11-6a10.84,10.84,0,0,0,5.94.28,7.13,7.13,0,0,1,.78-.26c2.67-.62,4,.86,7.3,0,2.26-.59,2.43-1.47,4.56-1.78a11,11,0,0,1,5.47.89c5.93,2.62,13-.79,17.95,3.87,2.56,2.4,2.64,5.81,5,6a5.39,5.39,0,0,0,3-1c2.06-1.29,2.66-3.15,3-3s-.38,3.14-1,5c-.69,2.05-1,2.39-1,2.75a1.86,1.86,0,0,0,0,.25c.13.88,5.6,3,8,6,1.29,1.62,2.41,4.39,2,6a11.13,11.13,0,0,0-.38,3.57.49.49,0,0,0,0,.14c.05.44.38,1.39,2.65,3.34.94.8,1.38,1.65,2.73,6.22,2.21,7.47,2.25,8.63,2.68,9.94.13.37.25.63.31.79,1.32,3.2,1.44,3.93,2,5s2,3.79,4,4,3.69-2.28,4-2-.72,2.94-3,4c-3.05,1.42-6.08-1.12-7,0s1.74,3.44,2.47,8.26c.36,2.42-.22,2.32,0,4.71.56,5.57,3.76,6.65,4.51,12,.51,3.63-.27,6.92-1,7s-1.44-4-3-4c-.94,0-1.7,1.43-2,2-1.17,2.24-.18,3.42-1,6s-2.06,2.49-2,4c.07,1.87,2,2.22,4,5,2.19,3.07,2.65,6.64,2,7s-1.83-2.11-4-2a2.78,2.78,0,0,0-2,1,2.6,2.6,0,0,0,0,3c1.42,1.61,5.66-.68,6,0,.47.93-6.71,6.81-12,9a6.7,6.7,0,0,0-3,2c-1.13,1.42-.76,2.44-2,4s-2.85,2.17-3,2,.92-.82,1-2a2.62,2.62,0,0,0-1-2c-.74-.6-2.36-.64-4,0s-1.53,1.37-3,2a7.19,7.19,0,0,1-5,0,9,9,0,0,1-4-3c-1.16-1.36-1.1-1.91-2-3a9.44,9.44,0,0,0-5-3" transform="translate(0.5 -0.5)"/></g><g id="Head"><ellipse class="cls-8" cx="271.5" cy="355.5" rx="57.12" ry="48.76" transform="translate(-146.04 514.16) rotate(-73.47)"/><path class="cls-5" d="M281.85,388.44c-1.42-3.91-9.36-3.16-18.35-6.94-8.43-3.55-12.77-9-17.05-7.22-1.19.49-1.72,1.21-1.69,1.37A20.54,20.54,0,0,0,255.5,390.5a34.93,34.93,0,0,0,21,2,32.62,32.62,0,0,0,5.4-1.75C282.85,390.34,282,388.76,281.85,388.44Z" transform="translate(0.5 -0.5)"/><path class="cls-6" d="M245.5,333.5a22.7,22.7,0,0,1,18,4" transform="translate(0.5 -0.5)"/><path class="cls-6" d="M281.5,344.5A23.24,23.24,0,0,1,298,353" transform="translate(0.5 -0.5)"/></g><g id="Ears"><path class="cls-8" d="M230,329a8.82,8.82,0,0,0-5.5-.5c-6.84,1.75-11.16,13.44-8,22a17,17,0,0,0,5,7" transform="translate(0.5 -0.5)"/><path class="cls-13" d="M220.88,335.77l4.11-.4-3.06,10.16-.44,3q-.33-2.83-.67-5.66l1.44-2.82Z" transform="translate(0.5 -0.5)"/><path class="cls-8" d="M320.94,358.05a9.45,9.45,0,0,1,4.1,2.87c4.44,5.64,1.3,17.47-6.09,22.61a17,17,0,0,1-8.12,2.85" transform="translate(0.5 -0.5)"/><path class="cls-13" d="M323.75,368.86l-3.19-2.61-3.13,10.13-1.28,2.71,3.7-4.33.38-3.14Z" transform="translate(0.5 -0.5)"/></g><g id="Nose"><path class="cls-13" d="M273.6,350.81l1.82,12.67a1.61,1.61,0,0,1-1.89,1.81A52.83,52.83,0,0,0,268,364c-1.91-.34-3.69-.55-5.31-.68" transform="translate(0.5 -0.5)"/><path class="cls-8" d="M272.67,349.87l1.76,13.18a1.25,1.25,0,0,1-1.48,1.39A22.61,22.61,0,0,0,269,363a23.79,23.79,0,0,0-7.37-.74" transform="translate(0.5 -0.5)"/></g><g id="Hair"><path class="cls-12" d="M231,327l8.84.62a1.25,1.25,0,0,0,1.19-1.83L237,318l-5,7" transform="translate(0.5 -0.5)"/><path class="cls-12" d="M238.22,316.82l8.51,2.48a1.24,1.24,0,0,0,1.55-1.52L246,309.3l-6.37,5.78" transform="translate(0.5 -0.5)"/><path class="cls-12" d="M246.81,308.51l7.6,4.55A1.24,1.24,0,0,0,256.3,312c0-2.92,0-5.85-.07-8.77l-7.62,4" transform="translate(0.5 -0.5)"/><path class="cls-12" d="M257.84,302.53l6.6,8.84c.73,1,1.9.61,2.09-.66l1.71-11.36-8.35,2.16" transform="translate(0.5 -0.5)"/><path class="cls-12" d="M269.36,299.55l4.1,11.59c.45,1.28,1.68,1.18,2.19-.18q2.3-6.09,4.58-12.19l-8.63.19" transform="translate(0.5 -0.5)"/><path class="cls-12" d="M281.38,299.11,282.51,311c.13,1.31,1.34,1.54,2.16.41l7.4-10.19-8.38-2.07" transform="translate(0.5 -0.5)"/><path class="cls-12" d="M292.58,302.59l-2.39,12.52c-.27,1.37.86,1.88,2,.9l10.3-8.81-7.64-4" transform="translate(0.5 -0.5)"/><path class="cls-12" d="M302.08,308.25l-4.28,10.39c-.48,1.14.45,1.95,1.65,1.43l10.79-4.63-6.21-6" transform="translate(0.5 -0.5)"/><path class="cls-12" d="M310.66,315.38,306,322.92a1.25,1.25,0,0,0,1.06,1.91l8.77.05L312,317.2" transform="translate(0.5 -0.5)"/><path class="cls-12" d="M316.09,325.42l-5.28,7.1a1.25,1.25,0,0,0,.88,2l8.74.81-3.19-8" transform="translate(0.5 -0.5)"/><path class="cls-12" d="M319.38,335.75l-7,4.67a1,1,0,0,0,.32,1.82l8.2,2.58-.93-7.25" transform="translate(0.5 -0.5)"/><path class="cls-12" d="M321,346.17l-7.61,4.2a1.16,1.16,0,0,0,.05,2.07l7.75,4,.12-8.14" transform="translate(0.5 -0.5)"/></g><path class="cls-5" d="M244,439" transform="translate(0.5 -0.5)"/><path class="cls-5" d="M244.42,422.55" transform="translate(0.5 -0.5)"/><path class="cls-14" d="M991.07,411l-20.22,12.63,19,10.08-7,53.87,22,7.25,20.61-15-29.21-47.2,15.66-20.7Z" transform="translate(0.5 -0.5)"/><path class="cls-5" d="M969.64,437.72q-2.67-11.27-5.33-22.53a101.25,101.25,0,0,1,24.83-4.09" transform="translate(0.5 -0.5)"/><path class="cls-10" d="M1000.26,416.08q-.21.32,19.78,13.66-3.45-14.62-3.68-14.58t2.16,11.81Q1000.46,415.77,1000.26,416.08Z" transform="translate(0.5 -0.5)"/><path class="cls-5" d="M1019.88,428.73q-2.52-10.8-5-21.61l-25.64,4.19" transform="translate(0.5 -0.5)"/></g><path class="cls-4" d="M908.58,347.82a9.44,9.44,0,0,0-3.94,3.09c-4.13,5.86-.37,17.51,7.29,22.25a17,17,0,0,0,8.25,2.42" transform="translate(0.5 -0.5)"/><path class="cls-13" d="M955.47,338.08l-1.14,12.74a1.62,1.62,0,0,0,2,1.72,52.28,52.28,0,0,1,5.45-1.59c1.89-.44,3.66-.75,5.27-1" transform="translate(0.5 -0.5)"/><path class="cls-4" d="M956.34,337.08l-1.05,13.26a1.25,1.25,0,0,0,1.55,1.31A23.19,23.19,0,0,1,968,348.88" transform="translate(0.5 -0.5)"/><polyline class="cls-4" points="1042.46 440.38 1117.6 366.12 1071.8 282.02 1055.11 287.17 1087.86 356.11 1026.12 406.4"/><path class="cls-5" d="M1024.42,407.2Q1033.2,424,1042,440.88l44.4-33.33q-11.56-18.21-23.11-36.43Z" transform="translate(0.5 -0.5)"/><path class="cls-12" d="M939,288" transform="translate(0.5 -0.5)"/><path class="cls-2" d="M908.41,345.78a80.83,80.83,0,0,0,24.32-54.27l56.72,11.31-24.6-31.41L920,283l-22,41Z" transform="translate(0.5 -0.5)"/></g><g id="Boy_Middle" data-name="Boy Middle"><path class="cls-15" d="M692,555.65c-2.27-24.33-14.13-131.23-17.8-159.39-17.23.58-35.28.87-54.08.77-12.64-.07-51.51-1.2-58.62-1.53q-8.12,43.42-14.5,89.82-4.75,35-8,68.42c23.32,2.27,49.47,3.9,78,4.21C644.3,558.24,669.43,557.28,692,555.65Z" transform="translate(0.5 -0.5)"/><polygon class="cls-16" points="619.5 379.5 595.5 393.5 612.5 416.5 589.5 494.5 610.5 514.5 636.5 500.5 619.5 417.5 641.95 392.9 619.5 379.5"/><path class="cls-17" d="M595,397q.81-11.53,1.61-23.06l43,1.56L641,398" transform="translate(0.5 -0.5)"/><g id="Face"><path class="cls-17" d="M670,321c0,4.33,0,8.67,0,13,0,2.67,0,5.33,0,8,0,6.61.1,12.23-1,16a31.18,31.18,0,0,1-2,5,9.33,9.33,0,0,1-.83,1.47c-1.69,2.42-5.39,4.8-18.17,10.53,0,0-18.85,8.44-29,8-1.1-.05-2.17-.19-2.17-.19h0c-2.51-.4-5.09-1.49-12.33-4.31-20.65-8.05-26.42-9.87-32-17-4.24-5.41-4.56-10.3-5-34-.87-47.11,0-50.09,3-53a11.78,11.78,0,0,1,1.67-1.35C577.72,269.53,614,271,614,271c4,.16,4.6.06,7.29,0,3-.07,5.79-.05,8.71,0,.93,0,.22,0,23,0h7a37.86,37.86,0,0,1,5,0,24.09,24.09,0,0,1,5,1Z" transform="translate(0.5 -0.5)"/><path class="cls-6" d="M589.87,309.65a22.64,22.64,0,0,1,18.32-2.13" transform="translate(0.5 -0.5)"/><path class="cls-6" d="M627.49,308.22a23.46,23.46,0,0,1,10.43-.45,23.21,23.21,0,0,1,7.94,3.06" transform="translate(0.5 -0.5)"/><path class="cls-18" d="M610.37,301.92l-26.83,1.58-.3-3.33L609.87,297a1.26,1.26,0,0,1,1.39,1.09l.28,2.41A1.25,1.25,0,0,1,610.37,301.92Z" transform="translate(0.5 -0.5)"/><path class="cls-18" d="M627.45,302.15l26.86,1.09.24-3.33-26.68-2.66a1.25,1.25,0,0,0-1.37,1.12l-.24,2.41A1.24,1.24,0,0,0,627.45,302.15Z" transform="translate(0.5 -0.5)"/></g><path class="cls-10" d="M610.52,403.73q.3.28-18.08,17.62.36-15.06.62-15.05t.38,12Q610.24,403.48,610.52,403.73Z" transform="translate(0.5 -0.5)"/><path class="cls-5" d="M638.39,345.85c-2.68-3.23-10.31-1.31-20.39-1.85-8.24-.44-14.39-2.33-17.72.73-.89.82-1.3,1.57-1.12,1.87a20.59,20.59,0,0,0,15.19,10.25,34.89,34.89,0,0,0,20.41-5.35,32.35,32.35,0,0,0,4.46-3.5C640,347.3,638.63,346.14,638.39,345.85Z" transform="translate(0.5 -0.5)"/><g id="Ears-2" data-name="Ears"><path class="cls-17" d="M569.92,296.52a25.36,25.36,0,0,0-10.33,1.54c-11.74,4.68-14.34,20-4.64,28.71,3.81,3.45,8.85,5.26,12.37,6.23" transform="translate(0.5 -0.5)"/><path class="cls-13" d="M554.61,307.27l8.18-1-3.71,12.58-.19,3.62q-1.35-3.36-2.69-6.72l2.22-3.56Z" transform="translate(0.5 -0.5)"/><path class="cls-17" d="M668.53,295.9a19.77,19.77,0,0,1,8.88,2.25c9.76,5.45,10.23,20.67.68,28.6A27.4,27.4,0,0,1,666.5,332" transform="translate(0.5 -0.5)"/><path class="cls-13" d="M680.69,307.58,673.63,306l1.77,12.65-.26,3.57,3.16-6.42-1.53-3.67Z" transform="translate(0.5 -0.5)"/></g><path class="cls-13" d="M610,327.17c2.08,1.75,6.46,4.77,12,3.64a15.7,15.7,0,0,0,7-3.64" transform="translate(0.5 -0.5)"/><path class="cls-17" d="M610,327a22.74,22.74,0,0,0,12,2,22.22,22.22,0,0,0,7-2" transform="translate(0.5 -0.5)"/><path class="cls-19" d="M568,260c-1.67,1.2-3,2.24-4,3a8.86,8.86,0,0,0-7,8,7.86,7.86,0,0,1,2-3c.5-.44,1.62-1.28,2-1,.7.51-2.4,3.81-3,8-1,7,6,11.26,4,15-1.44,2.71-6.08,2.28-6,3,.1,1,8.41,2,10-1a3.47,3.47,0,0,0,0-3c-.4,0-.64,13.73,1,14,2,.33,2.79-20.31,13.09-24,2.63-.94,7.78-1.34,15.91,3a57.13,57.13,0,0,0,18,6,58.14,58.14,0,0,0,29-3l14.44-6.39a5,5,0,0,1,.85.2c2.6.88,3.9,3.79,4.71,6.19a42.34,42.34,0,0,1,2,19c-.33,1.88-1.28,6.4,0,7,.29.14.52,0,2,0s1.73.2,2,0c.68-.49.22-1.87,0-5-.1-1.33-.09-2.38-.1-2.64-.14-2.47,2.27-6.08,3.1-7.36a70.64,70.64,0,0,0,5-9c1.79-4.05,3.09-7,2-10a9.51,9.51,0,0,0-5-5,22.79,22.79,0,0,1,8-2c5.46-.32,8.75,1.57,9,1,.35-.82-5.55-6.51-12-5a11,11,0,0,0-6,4,13.4,13.4,0,0,0,2-7c-.06-5.68-4.09-10.35-5-10-.43.16-.06,1.39,0,7,0,1.23,0,2.26,0,3l-8-9a45.77,45.77,0,0,0-11-4,46.39,46.39,0,0,0-20,0c-3.62-2.21-17.19-9.91-31-5a27.94,27.94,0,0,0-6,3,53.17,53.17,0,0,0-15,5A90.6,90.6,0,0,0,568,260Z" transform="translate(0.5 -0.5)"/><path class="cls-20" d="M574,267l15-4c-3.6,3.07-7.29,6.4-11,10-1.73,1.68-3.39,3.34-5,5a15.28,15.28,0,0,1,8-10l-7,2-7,2a9.93,9.93,0,0,1,4-4A9.79,9.79,0,0,1,574,267Z" transform="translate(0.5 -0.5)"/><path class="cls-20" d="M615.88,255.44a27.86,27.86,0,0,1,8.87,1,27.55,27.55,0,0,1,7.41,3.27,24.54,24.54,0,0,0-17.26.57,22.17,22.17,0,0,0-6.9,4.8,27.08,27.08,0,0,1,21.42.54,40.1,40.1,0,0,0-12.55,5.23,39.49,39.49,0,0,0-8.87,7.69,66.7,66.7,0,0,1,13.8-2.89c6.58-.66,10.31,0,16.75,0a108.36,108.36,0,0,0,20.1-1.76q4.56,8.56,9.13,17.14a15.71,15.71,0,0,1,1.83-5.32,23,23,0,0,1,6.39-7.09c-2.83-5.1-4.89-8.34-6.39-10-.37-.41-1.85-2-.92-3,.35-.34.75-.3.92-.59.39-.7-1.51-1.64-4.57-3.55-1.22-.76-2.17-1.39-2.74-1.77-7.63-2.86-12.46-3.22-15.53-3-3.63.32-7.47-.13-11,.59a3.54,3.54,0,0,1-1.83,0c-.41-.14-.48-.33-.91-.59a4.6,4.6,0,0,0-1.83-.59c-1.69-.29-3.42-2.78-4.52-3.57C625.38,251.61,622.55,251.47,615.88,255.44Z" transform="translate(0.5 -0.5)"/><path class="cls-19" d="M652,260" transform="translate(0.5 -0.5)"/><path class="cls-5" d="M593,420l1.27-24H619" transform="translate(0.5 -0.5)"/><path class="cls-10" d="M627,404q-.27.28,17,17-.76-15-1-15c-.14,0-.14,4,0,12Q627.25,403.74,627,404Z" transform="translate(0.5 -0.5)"/><path class="cls-10" d="M590,418" transform="translate(0.5 -0.5)"/><path class="cls-5" d="M644,420l-1.32-24L618,396" transform="translate(0.5 -0.5)"/><path class="cls-21" d="M498,380a93.92,93.92,0,0,1,20-23,92.51,92.51,0,0,1,13-9l3,4" transform="translate(0.5 -0.5)"/><path class="cls-17" d="M563,396,430,231l-16,12L552,448" transform="translate(0.5 -0.5)"/><path class="cls-15" d="M565.5,398.54Q559.75,424.27,554,450l-56-70,33.46-31.3Z" transform="translate(0.5 -0.5)"/><path class="cls-22" d="M500,443" transform="translate(0.5 -0.5)"/><path class="cls-21" d="M737.92,385.37a93.93,93.93,0,0,0-18.45-24.26,92.29,92.29,0,0,0-12.38-9.84l-3.25,3.8" transform="translate(0.5 -0.5)"/><path class="cls-17" d="M672,397.06,815.57,241.17l15.18,13L679.56,449.67" transform="translate(0.5 -0.5)"/><path class="cls-15" d="M669.35,399.43q4,26.06,8.09,52.11l60.48-66.17-31.33-33.43Z" transform="translate(0.5 -0.5)"/><path class="cls-22" d="M731.78,448.1" transform="translate(0.5 -0.5)"/><path class="cls-16" d="M539,554" transform="translate(0.5 -0.5)"/></g><g id="Guides"><circle class="cls-23" cx="831.25" cy="161.04" r="19.04"/><circle class="cls-23" cx="255.76" cy="192.85" r="12.78"/></g></svg>